{
    "asset" : {
        "generator" : "Khronos glTF Blender I/O v1.7.33",
        "version" : "2.0"
    },
    "scene" : 0,
    "scenes" : [
        {
            "name" : "Scene",
            "nodes" : [
                0
            ]
        }
    ],
    "nodes" : [
        {
            "mesh" : 0,
            "name" : "Curve",
            "scale" : [
                243.09535217285156,
                100,
                243.09535217285156
            ]
        }
    ],
    "materials" : [
        {
            "doubleSided" : true,
            "name" : "SVGMat.001",
            "pbrMetallicRoughness" : {
                "baseColorFactor" : [
                    1,
                    1,
                    1,
                    1
                ],
                "metallicFactor" : 0.5,
                "roughnessFactor" : 0.4000000059604645
            }
        }
    ],
    "meshes" : [
        {
            "name" : "Curve",
            "primitives" : [
                {
                    "attributes" : {
                        "POSITION" : 0,
                        "NORMAL" : 1,
                        "TEXCOORD_0" : 2
                    },
                    "indices" : 3,
                    "material" : 0
                }
            ]
        }
    ],
    "accessors" : [
        {
            "bufferView" : 0,
            "componentType" : 5126,
            "count" : 4774,
            "max" : [
                0.04253768548369408,
                0,
                0.034937452524900436
            ],
            "min" : [
                -0.04237222298979759,
                0,
                -0.046072691679000854
            ],
            "type" : "VEC3"
        },
        {
            "bufferView" : 1,
            "componentType" : 5126,
            "count" : 4774,
            "type" : "VEC3"
        },
        {
            "bufferView" : 2,
            "componentType" : 5126,
            "count" : 4774,
            "type" : "VEC2"
        },
        {
            "bufferView" : 3,
            "componentType" : 5123,
            "count" : 10419,
            "type" : "SCALAR"
        }
    ],
    "bufferViews" : [
        {
            "buffer" : 0,
            "byteLength" : 57288,
            "byteOffset" : 0
        },
        {
            "buffer" : 0,
            "byteLength" : 57288,
            "byteOffset" : 57288
        },
        {
            "buffer" : 0,
            "byteLength" : 38192,
            "byteOffset" : 114576
        },
        {
            "buffer" : 0,
            "byteLength" : 20838,
            "byteOffset" : 152768
        }
    ],
    "buffers" : [
        {
            "byteLength" : 173608,
            "uri" : "data:application/octet-stream;base64,"
        }
    ]
}
