{
    "asset" : {
        "generator" : "Khronos glTF Blender I/O v1.7.33",
        "version" : "2.0"
    },
    "scene" : 0,
    "scenes" : [
        {
            "name" : "Scene",
            "nodes" : [
                0
            ]
        }
    ],
    "nodes" : [
        {
            "mesh" : 0,
            "name" : "Curve.001",
            "scale" : [
                50,
                50,
                50
            ]
        }
    ],
    "materials" : [
        {
            "doubleSided" : true,
            "name" : "SVGMat.002",
            "pbrMetallicRoughness" : {
                "baseColorFactor" : [
                    0.5520114302635193,
                    0.0012141079641878605,
                    0.0012141079641878605,
                    1
                ],
                "metallicFactor" : 0.5,
                "roughnessFactor" : 0.4000000059604645
            }
        },
        {
            "doubleSided" : true,
            "name" : "SVGMat.001",
            "pbrMetallicRoughness" : {
                "baseColorFactor" : [
                    0.0012141079641878605,
                    0.0012141079641878605,
                    0.0012141079641878605,
                    1
                ],
                "metallicFactor" : 1,
                "roughnessFactor" : 0.4000000059604645
            }
        }
    ],
    "meshes" : [
        {
            "name" : "Curve.001",
            "primitives" : [
                {
                    "attributes" : {
                        "POSITION" : 0,
                        "NORMAL" : 1,
                        "TEXCOORD_0" : 2
                    },
                    "indices" : 3,
                    "material" : 0
                },
                {
                    "attributes" : {
                        "POSITION" : 4,
                        "NORMAL" : 5,
                        "TEXCOORD_0" : 6
                    },
                    "indices" : 7,
                    "material" : 1
                }
            ]
        }
    ],
    "accessors" : [
        {
            "bufferView" : 0,
            "componentType" : 5126,
            "count" : 3318,
            "max" : [
                0.009824512526392937,
                0.0012499999720603228,
                0.00863263662904501
            ],
            "min" : [
                -0.009564592503011227,
                -0.0012499999720603228,
                -0.008608747273683548
            ],
            "type" : "VEC3"
        },
        {
            "bufferView" : 1,
            "componentType" : 5126,
            "count" : 3318,
            "type" : "VEC3"
        },
        {
            "bufferView" : 2,
            "componentType" : 5126,
            "count" : 3318,
            "type" : "VEC2"
        },
        {
            "bufferView" : 3,
            "componentType" : 5123,
            "count" : 4392,
            "type" : "SCALAR"
        },
        {
            "bufferView" : 4,
            "componentType" : 5126,
            "count" : 2850,
            "max" : [
                0.006739178206771612,
                0.0012499999720603228,
                0.009778412990272045
            ],
            "min" : [
                -0.006575143430382013,
                -0.0012499999720603228,
                -0.00997844897210598
            ],
            "type" : "VEC3"
        },
        {
            "bufferView" : 5,
            "componentType" : 5126,
            "count" : 2850,
            "type" : "VEC3"
        },
        {
            "bufferView" : 6,
            "componentType" : 5126,
            "count" : 2850,
            "type" : "VEC2"
        },
        {
            "bufferView" : 7,
            "componentType" : 5123,
            "count" : 3756,
            "type" : "SCALAR"
        }
    ],
    "bufferViews" : [
        {
            "buffer" : 0,
            "byteLength" : 39816,
            "byteOffset" : 0
        },
        {
            "buffer" : 0,
            "byteLength" : 39816,
            "byteOffset" : 39816
        },
        {
            "buffer" : 0,
            "byteLength" : 26544,
            "byteOffset" : 79632
        },
        {
            "buffer" : 0,
            "byteLength" : 8784,
            "byteOffset" : 106176
        },
        {
            "buffer" : 0,
            "byteLength" : 34200,
            "byteOffset" : 114960
        },
        {
            "buffer" : 0,
            "byteLength" : 34200,
            "byteOffset" : 149160
        },
        {
            "buffer" : 0,
            "byteLength" : 22800,
            "byteOffset" : 183360
        },
        {
            "buffer" : 0,
            "byteLength" : 7512,
            "byteOffset" : 206160
        }
    ],
    "buffers" : [
        {
            "byteLength" : 213672,
            "uri" : "data:application/octet-stream;base64,"
        }
    ]
}
