{
    "asset" : {
        "generator" : "Khronos glTF Blender I/O v1.7.33",
        "version" : "2.0"
    },
    "scene" : 0,
    "scenes" : [
        {
            "name" : "Scene",
            "nodes" : [
                0
            ]
        }
    ],
    "nodes" : [
        {
            "mesh" : 0,
            "name" : "Curve",
            "scale" : [
                50,
                50,
                50
            ]
        }
    ],
    "materials" : [
        {
            "doubleSided" : true,
            "name" : "Material.001",
            "pbrMetallicRoughness" : {
                "metallicFactor" : 0.5,
                "roughnessFactor" : 0.5
            }
        }
    ],
    "meshes" : [
        {
            "name" : "Curve.001",
            "primitives" : [
                {
                    "attributes" : {
                        "POSITION" : 0,
                        "NORMAL" : 1,
                        "TEXCOORD_0" : 2
                    },
                    "indices" : 3,
                    "material" : 0
                }
            ]
        }
    ],
    "accessors" : [
        {
            "bufferView" : 0,
            "componentType" : 5126,
            "count" : 72633,
            "max" : [
                0.0749962106347084,
                0.004999999888241291,
                0.07762739062309265
            ],
            "min" : [
                -0.07938949763774872,
                -0.004999999888241291,
                -0.06528634577989578
            ],
            "type" : "VEC3"
        },
        {
            "bufferView" : 1,
            "componentType" : 5126,
            "count" : 72633,
            "type" : "VEC3"
        },
        {
            "bufferView" : 2,
            "componentType" : 5126,
            "count" : 72633,
            "type" : "VEC2"
        },
        {
            "bufferView" : 3,
            "componentType" : 5125,
            "count" : 86508,
            "type" : "SCALAR"
        }
    ],
    "bufferViews" : [
        {
            "buffer" : 0,
            "byteLength" : 871596,
            "byteOffset" : 0
        },
        {
            "buffer" : 0,
            "byteLength" : 871596,
            "byteOffset" : 871596
        },
        {
            "buffer" : 0,
            "byteLength" : 581064,
            "byteOffset" : 1743192
        },
        {
            "buffer" : 0,
            "byteLength" : 346032,
            "byteOffset" : 2324256
        }
    ],
    "buffers" : [
        {
            "byteLength" : 2670288,
            "uri" : "data:application/octet-stream;base64,"
        }
    ]
}
