{
    "asset" : {
        "generator" : "Khronos glTF Blender I/O v1.7.33",
        "version" : "2.0"
    },
    "scene" : 0,
    "scenes" : [
        {
            "name" : "Scene",
            "nodes" : [
                0,
                1
            ]
        }
    ],
    "nodes" : [
        {
            "mesh" : 0,
            "name" : "Curve"
        },
        {
            "mesh" : 1,
            "name" : "Curve.001"
        }
    ],
    "materials" : [
        {
            "doubleSided" : true,
            "name" : "SVGMat.001",
            "pbrMetallicRoughness" : {
                "baseColorFactor" : [
                    1,
                    0,
                    0,
                    1
                ],
                "metallicFactor" : 0.10000000149011612,
                "roughnessFactor" : 0.4000000059604645
            }
        },
        {
            "doubleSided" : true,
            "name" : "SVGMat.002",
            "pbrMetallicRoughness" : {
                "baseColorFactor" : [
                    0.949999988079071,
                    0.949999988079071,
                    0.949999988079071,
                    1
                ],
                "metallicFactor" : 0.20000000298023224,
                "roughnessFactor" : 0.4000000059604645
            }
        }
    ],
    "meshes" : [
        {
            "name" : "Curve",
            "primitives" : [
                {
                    "attributes" : {
                        "POSITION" : 0,
                        "NORMAL" : 1,
                        "TEXCOORD_0" : 2
                    },
                    "indices" : 3,
                    "material" : 0
                }
            ]
        },
        {
            "name" : "Curve.002",
            "primitives" : [
                {
                    "attributes" : {
                        "POSITION" : 4,
                        "NORMAL" : 5,
                        "TEXCOORD_0" : 6
                    },
                    "indices" : 7,
                    "material" : 1
                }
            ]
        }
    ],
    "accessors" : [
        {
            "bufferView" : 0,
            "componentType" : 5126,
            "count" : 5393,
            "max" : [
                0.07715936750173569,
                0,
                0.07791119813919067
            ],
            "min" : [
                -0.07716972380876541,
                0,
                0.029540937393903732
            ],
            "type" : "VEC3"
        },
        {
            "bufferView" : 1,
            "componentType" : 5126,
            "count" : 5393,
            "type" : "VEC3"
        },
        {
            "bufferView" : 2,
            "componentType" : 5126,
            "count" : 5393,
            "type" : "VEC2"
        },
        {
            "bufferView" : 3,
            "componentType" : 5123,
            "count" : 12018,
            "type" : "SCALAR"
        },
        {
            "bufferView" : 4,
            "componentType" : 5126,
            "count" : 29800,
            "max" : [
                0.050412632524967194,
                0.004999999888241291,
                0.05572200566530228
            ],
            "min" : [
                -0.05284137278795242,
                -0.004999999888241291,
                -0.06493540853261948
            ],
            "type" : "VEC3"
        },
        {
            "bufferView" : 5,
            "componentType" : 5126,
            "count" : 29800,
            "type" : "VEC3"
        },
        {
            "bufferView" : 6,
            "componentType" : 5126,
            "count" : 29800,
            "type" : "VEC2"
        },
        {
            "bufferView" : 7,
            "componentType" : 5123,
            "count" : 38340,
            "type" : "SCALAR"
        }
    ],
    "bufferViews" : [
        {
            "buffer" : 0,
            "byteLength" : 64716,
            "byteOffset" : 0
        },
        {
            "buffer" : 0,
            "byteLength" : 64716,
            "byteOffset" : 64716
        },
        {
            "buffer" : 0,
            "byteLength" : 43144,
            "byteOffset" : 129432
        },
        {
            "buffer" : 0,
            "byteLength" : 24036,
            "byteOffset" : 172576
        },
        {
            "buffer" : 0,
            "byteLength" : 357600,
            "byteOffset" : 196612
        },
        {
            "buffer" : 0,
            "byteLength" : 357600,
            "byteOffset" : 554212
        },
        {
            "buffer" : 0,
            "byteLength" : 238400,
            "byteOffset" : 911812
        },
        {
            "buffer" : 0,
            "byteLength" : 76680,
            "byteOffset" : 1150212
        }
    ],
    "buffers" : [
        {
            "byteLength" : 1226892,
            "uri" : "data:application/octet-stream;base64,"
        }
    ]
}
