{
    "asset" : {
        "generator" : "Khronos glTF Blender I/O v1.7.33",
        "version" : "2.0"
    },
    "scene" : 0,
    "scenes" : [
        {
            "name" : "Scene",
            "nodes" : [
                0
            ]
        }
    ],
    "nodes" : [
        {
            "mesh" : 0,
            "name" : "Curve"
        }
    ],
    "materials" : [
        {
            "doubleSided" : true,
            "name" : "SVGMat.001",
            "pbrMetallicRoughness" : {
                "baseColorFactor" : [
                    0.949999988079071,
                    0.949999988079071,
                    0.949999988079071,
                    1
                ],
                "metallicFactor" : 0.10000000149011612,
                "roughnessFactor" : 0.4000000059604645
            }
        }
    ],
    "meshes" : [
        {
            "name" : "Curve",
            "primitives" : [
                {
                    "attributes" : {
                        "POSITION" : 0,
                        "NORMAL" : 1,
                        "TEXCOORD_0" : 2
                    },
                    "indices" : 3,
                    "material" : 0
                }
            ]
        }
    ],
    "accessors" : [
        {
            "bufferView" : 0,
            "componentType" : 5126,
            "count" : 5393,
            "max" : [
                0.07715936750173569,
                0,
                0.07791119813919067
            ],
            "min" : [
                -0.07716972380876541,
                0,
                0.029540937393903732
            ],
            "type" : "VEC3"
        },
        {
            "bufferView" : 1,
            "componentType" : 5126,
            "count" : 5393,
            "type" : "VEC3"
        },
        {
            "bufferView" : 2,
            "componentType" : 5126,
            "count" : 5393,
            "type" : "VEC2"
        },
        {
            "bufferView" : 3,
            "componentType" : 5123,
            "count" : 12018,
            "type" : "SCALAR"
        }
    ],
    "bufferViews" : [
        {
            "buffer" : 0,
            "byteLength" : 64716,
            "byteOffset" : 0
        },
        {
            "buffer" : 0,
            "byteLength" : 64716,
            "byteOffset" : 64716
        },
        {
            "buffer" : 0,
            "byteLength" : 43144,
            "byteOffset" : 129432
        },
        {
            "buffer" : 0,
            "byteLength" : 24036,
            "byteOffset" : 172576
        }
    ],
    "buffers" : [
        {
            "byteLength" : 196612,
            "uri" : "data:application/octet-stream;base64,"
        }
    ]
}
