{
    "asset" : {
        "generator" : "Khronos glTF Blender I/O v1.7.33",
        "version" : "2.0"
    },
    "scene" : 0,
    "scenes" : [
        {
            "name" : "Scene",
            "nodes" : [
                0,
                1,
                2
            ]
        }
    ],
    "nodes" : [
        {
            "mesh" : 0,
            "name" : "Curve",
            "scale" : [
                50,
                50,
                50
            ]
        },
        {
            "mesh" : 1,
            "name" : "Curve.001",
            "scale" : [
                50,
                50,
                50
            ]
        },
        {
            "mesh" : 2,
            "name" : "Curve.002",
            "scale" : [
                50,
                50,
                50
            ]
        }
    ],
    "materials" : [
        {
            "doubleSided" : true,
            "name" : "SVGMat.012",
            "pbrMetallicRoughness" : {
                "baseColorFactor" : [
                    0.07658097892999649,
                    0.07658097892999649,
                    0.07658097892999649,
                    1
                ],
                "metallicFactor" : 1,
                "roughnessFactor" : 0.4000000059604645
            }
        },
        {
            "doubleSided" : true,
            "name" : "SVGMat.013",
            "pbrMetallicRoughness" : {
                "baseColorFactor" : [
                    0,
                    0,
                    0,
                    1
                ],
                "metallicFactor" : 0.5,
                "roughnessFactor" : 0.4000000059604645
            }
        },
        {
            "doubleSided" : true,
            "name" : "SVGMat.014",
            "pbrMetallicRoughness" : {
                "baseColorFactor" : [
                    1,
                    0,
                    0,
                    1
                ],
                "metallicFactor" : 0,
                "roughnessFactor" : 0.4000000059604645
            }
        }
    ],
    "meshes" : [
        {
            "name" : "Curve.007",
            "primitives" : [
                {
                    "attributes" : {
                        "POSITION" : 0,
                        "NORMAL" : 1,
                        "TEXCOORD_0" : 2
                    },
                    "indices" : 3,
                    "material" : 0
                }
            ]
        },
        {
            "name" : "Curve.008",
            "primitives" : [
                {
                    "attributes" : {
                        "POSITION" : 4,
                        "NORMAL" : 5,
                        "TEXCOORD_0" : 6
                    },
                    "indices" : 7,
                    "material" : 1
                }
            ]
        },
        {
            "name" : "Curve.009",
            "primitives" : [
                {
                    "attributes" : {
                        "POSITION" : 8,
                        "NORMAL" : 9,
                        "TEXCOORD_0" : 10
                    },
                    "indices" : 11,
                    "material" : 2
                }
            ]
        }
    ],
    "accessors" : [
        {
            "bufferView" : 0,
            "componentType" : 5126,
            "count" : 277,
            "max" : [
                0.01694018393754959,
                0,
                -0.012491825968027115
            ],
            "min" : [
                -0.016080491244792938,
                0,
                -0.023991692811250687
            ],
            "type" : "VEC3"
        },
        {
            "bufferView" : 1,
            "componentType" : 5126,
            "count" : 277,
            "type" : "VEC3"
        },
        {
            "bufferView" : 2,
            "componentType" : 5126,
            "count" : 277,
            "type" : "VEC2"
        },
        {
            "bufferView" : 3,
            "componentType" : 5123,
            "count" : 591,
            "type" : "SCALAR"
        },
        {
            "bufferView" : 4,
            "componentType" : 5126,
            "count" : 3380,
            "max" : [
                0.02762053906917572,
                0,
                0.026168912649154663
            ],
            "min" : [
                -0.024315904825925827,
                0,
                -0.026875924319028854
            ],
            "type" : "VEC3"
        },
        {
            "bufferView" : 5,
            "componentType" : 5126,
            "count" : 3380,
            "type" : "VEC3"
        },
        {
            "bufferView" : 6,
            "componentType" : 5126,
            "count" : 3380,
            "type" : "VEC2"
        },
        {
            "bufferView" : 7,
            "componentType" : 5123,
            "count" : 7746,
            "type" : "SCALAR"
        },
        {
            "bufferView" : 8,
            "componentType" : 5126,
            "count" : 631,
            "max" : [
                0.007124859839677811,
                0,
                0.003277469426393509
            ],
            "min" : [
                -0.0022513195872306824,
                0,
                -0.009240400046110153
            ],
            "type" : "VEC3"
        },
        {
            "bufferView" : 9,
            "componentType" : 5126,
            "count" : 631,
            "type" : "VEC3"
        },
        {
            "bufferView" : 10,
            "componentType" : 5126,
            "count" : 631,
            "type" : "VEC2"
        },
        {
            "bufferView" : 11,
            "componentType" : 5123,
            "count" : 1440,
            "type" : "SCALAR"
        }
    ],
    "bufferViews" : [
        {
            "buffer" : 0,
            "byteLength" : 3324,
            "byteOffset" : 0
        },
        {
            "buffer" : 0,
            "byteLength" : 3324,
            "byteOffset" : 3324
        },
        {
            "buffer" : 0,
            "byteLength" : 2216,
            "byteOffset" : 6648
        },
        {
            "buffer" : 0,
            "byteLength" : 1182,
            "byteOffset" : 8864
        },
        {
            "buffer" : 0,
            "byteLength" : 40560,
            "byteOffset" : 10048
        },
        {
            "buffer" : 0,
            "byteLength" : 40560,
            "byteOffset" : 50608
        },
        {
            "buffer" : 0,
            "byteLength" : 27040,
            "byteOffset" : 91168
        },
        {
            "buffer" : 0,
            "byteLength" : 15492,
            "byteOffset" : 118208
        },
        {
            "buffer" : 0,
            "byteLength" : 7572,
            "byteOffset" : 133700
        },
        {
            "buffer" : 0,
            "byteLength" : 7572,
            "byteOffset" : 141272
        },
        {
            "buffer" : 0,
            "byteLength" : 5048,
            "byteOffset" : 148844
        },
        {
            "buffer" : 0,
            "byteLength" : 2880,
            "byteOffset" : 153892
        }
    ],
    "buffers" : [
        {
            "byteLength" : 156772,
            "uri" : "data:application/octet-stream;base64,"
        }
    ]
}
