{
    "asset" : {
        "generator" : "Khronos glTF Blender I/O v1.7.33",
        "version" : "2.0"
    },
    "scene" : 0,
    "scenes" : [
        {
            "name" : "Scene",
            "nodes" : [
                0
            ]
        }
    ],
    "nodes" : [
        {
            "mesh" : 0,
            "name" : "Curve.008"
        }
    ],
    "materials" : [
        {
            "doubleSided" : true,
            "name" : "SVGMat.001",
            "pbrMetallicRoughness" : {
                "baseColorFactor" : [
                    0.25015830993652344,
                    0.00017189797654282302,
                    0,
                    1
                ],
                "metallicFactor" : 0.5,
                "roughnessFactor" : 0.4000000059604645
            }
        }
    ],
    "meshes" : [
        {
            "name" : "Curve.008",
            "primitives" : [
                {
                    "attributes" : {
                        "POSITION" : 0,
                        "NORMAL" : 1,
                        "TEXCOORD_0" : 2
                    },
                    "indices" : 3,
                    "material" : 0
                }
            ]
        }
    ],
    "accessors" : [
        {
            "bufferView" : 0,
            "componentType" : 5126,
            "count" : 9120,
            "max" : [
                0.090167336165905,
                0,
                0.02314070053398609
            ],
            "min" : [
                -0.07484867423772812,
                0,
                -0.031983282417058945
            ],
            "type" : "VEC3"
        },
        {
            "bufferView" : 1,
            "componentType" : 5126,
            "count" : 9120,
            "type" : "VEC3"
        },
        {
            "bufferView" : 2,
            "componentType" : 5126,
            "count" : 9120,
            "type" : "VEC2"
        },
        {
            "bufferView" : 3,
            "componentType" : 5123,
            "count" : 17010,
            "type" : "SCALAR"
        }
    ],
    "bufferViews" : [
        {
            "buffer" : 0,
            "byteLength" : 109440,
            "byteOffset" : 0
        },
        {
            "buffer" : 0,
            "byteLength" : 109440,
            "byteOffset" : 109440
        },
        {
            "buffer" : 0,
            "byteLength" : 72960,
            "byteOffset" : 218880
        },
        {
            "buffer" : 0,
            "byteLength" : 34020,
            "byteOffset" : 291840
        }
    ],
    "buffers" : [
        {
            "byteLength" : 325860,
            "uri" : "data:application/octet-stream;base64,"
        }
    ]
}
