{
    "asset" : {
        "generator" : "Khronos glTF Blender I/O v1.7.33",
        "version" : "2.0"
    },
    "scene" : 0,
    "scenes" : [
        {
            "name" : "Scene",
            "nodes" : [
                0
            ]
        }
    ],
    "nodes" : [
        {
            "mesh" : 0,
            "name" : "Curve",
            "scale" : [
                0.125,
                0.125,
                0.125
            ],
            "translation" : [
                -0.023963898420333862,
                0,
                0.02388828992843628
            ]
        }
    ],
    "materials" : [
        {
            "doubleSided" : true,
            "name" : "SVGMat.005",
            "pbrMetallicRoughness" : {
                "baseColorFactor" : [
                    0.6981954574584961,
                    0.6181515455245972,
                    0.6574307084083557,
                    1
                ],
                "metallicFactor" : 0,
                "roughnessFactor" : 0.4000000059604645
            }
        }
    ],
    "meshes" : [
        {
            "name" : "Curve.001",
            "primitives" : [
                {
                    "attributes" : {
                        "POSITION" : 0,
                        "NORMAL" : 1,
                        "TEXCOORD_0" : 2
                    },
                    "indices" : 3,
                    "material" : 0
                }
            ]
        }
    ],
    "accessors" : [
        {
            "bufferView" : 0,
            "componentType" : 5126,
            "count" : 44582,
            "max" : [
                0.35678020119667053,
                0.004999999888241291,
                -0.011199898086488247
            ],
            "min" : [
                0.01552350353449583,
                -0.004999999888241291,
                -0.3803148567676544
            ],
            "type" : "VEC3"
        },
        {
            "bufferView" : 1,
            "componentType" : 5126,
            "count" : 44582,
            "type" : "VEC3"
        },
        {
            "bufferView" : 2,
            "componentType" : 5126,
            "count" : 44582,
            "type" : "VEC2"
        },
        {
            "bufferView" : 3,
            "componentType" : 5123,
            "count" : 49374,
            "type" : "SCALAR"
        }
    ],
    "bufferViews" : [
        {
            "buffer" : 0,
            "byteLength" : 534984,
            "byteOffset" : 0
        },
        {
            "buffer" : 0,
            "byteLength" : 534984,
            "byteOffset" : 534984
        },
        {
            "buffer" : 0,
            "byteLength" : 356656,
            "byteOffset" : 1069968
        },
        {
            "buffer" : 0,
            "byteLength" : 98748,
            "byteOffset" : 1426624
        }
    ],
    "buffers" : [
        {
            "byteLength" : 1525372,
            "uri" : "data:application/octet-stream;base64,"
        }
    ]
}
