{
    "asset" : {
        "generator" : "Khronos glTF Blender I/O v1.7.33",
        "version" : "2.0"
    },
    "scene" : 0,
    "scenes" : [
        {
            "name" : "Scene",
            "nodes" : [
                0
            ]
        }
    ],
    "nodes" : [
        {
            "mesh" : 0,
            "name" : "Curve.001",
            "translation" : [
                0.0015350878238677979,
                0,
                -0.010115891695022583
            ]
        }
    ],
    "materials" : [
        {
            "doubleSided" : true,
            "name" : "SVGMat.424",
            "pbrMetallicRoughness" : {
                "baseColorFactor" : [
                    1,
                    1,
                    1,
                    1
                ],
                "metallicFactor" : 0.30000001192092896,
                "roughnessFactor" : 0.4000000059604645
            }
        }
    ],
    "meshes" : [
        {
            "name" : "Curve.839",
            "primitives" : [
                {
                    "attributes" : {
                        "POSITION" : 0,
                        "NORMAL" : 1,
                        "TEXCOORD_0" : 2
                    },
                    "indices" : 3,
                    "material" : 0
                }
            ]
        }
    ],
    "accessors" : [
        {
            "bufferView" : 0,
            "componentType" : 5126,
            "count" : 12140,
            "max" : [
                0.0923309177160263,
                0,
                0.10266333818435669
            ],
            "min" : [
                -0.09841829538345337,
                0,
                -0.08794832229614258
            ],
            "type" : "VEC3"
        },
        {
            "bufferView" : 1,
            "componentType" : 5126,
            "count" : 12140,
            "type" : "VEC3"
        },
        {
            "bufferView" : 2,
            "componentType" : 5126,
            "count" : 12140,
            "type" : "VEC2"
        },
        {
            "bufferView" : 3,
            "componentType" : 5123,
            "count" : 26913,
            "type" : "SCALAR"
        }
    ],
    "bufferViews" : [
        {
            "buffer" : 0,
            "byteLength" : 145680,
            "byteOffset" : 0
        },
        {
            "buffer" : 0,
            "byteLength" : 145680,
            "byteOffset" : 145680
        },
        {
            "buffer" : 0,
            "byteLength" : 97120,
            "byteOffset" : 291360
        },
        {
            "buffer" : 0,
            "byteLength" : 53826,
            "byteOffset" : 388480
        }
    ],
    "buffers" : [
        {
            "byteLength" : 442308,
            "uri" : "data:application/octet-stream;base64,"
        }
    ]
}
