{
    "asset" : {
        "generator" : "Khronos glTF Blender I/O v1.7.33",
        "version" : "2.0"
    },
    "scene" : 0,
    "scenes" : [
        {
            "name" : "Scene",
            "nodes" : [
                0
            ]
        }
    ],
    "nodes" : [
        {
            "mesh" : 0,
            "name" : "Curve",
            "translation" : [
                -0.01623108983039856,
                0,
                -0.004263043403625488
            ]
        }
    ],
    "materials" : [
        {
            "doubleSided" : true,
            "name" : "SVGMat.005",
            "pbrMetallicRoughness" : {
                "baseColorFactor" : [
                    0,
                    0,
                    0,
                    1
                ],
                "metallicFactor" : 0.30000001192092896,
                "roughnessFactor" : 0.4000000059604645
            }
        },
        {
            "doubleSided" : true,
            "name" : "SVGMat.006",
            "pbrMetallicRoughness" : {
                "baseColorFactor" : [
                    0,
                    0,
                    0,
                    1
                ],
                "metallicFactor" : 0.5,
                "roughnessFactor" : 0.4000000059604645
            }
        }
    ],
    "meshes" : [
        {
            "name" : "Curve.003",
            "primitives" : [
                {
                    "attributes" : {
                        "POSITION" : 0,
                        "NORMAL" : 1,
                        "TEXCOORD_0" : 2
                    },
                    "indices" : 3,
                    "material" : 0
                },
                {
                    "attributes" : {
                        "POSITION" : 4,
                        "NORMAL" : 5,
                        "TEXCOORD_0" : 6
                    },
                    "indices" : 7,
                    "material" : 1
                }
            ]
        }
    ],
    "accessors" : [
        {
            "bufferView" : 0,
            "componentType" : 5126,
            "count" : 6120,
            "max" : [
                0.1783524453639984,
                0,
                0.11521778255701065
            ],
            "min" : [
                -0.1279618740081787,
                0,
                -0.11451441794633865
            ],
            "type" : "VEC3"
        },
        {
            "bufferView" : 1,
            "componentType" : 5126,
            "count" : 6120,
            "type" : "VEC3"
        },
        {
            "bufferView" : 2,
            "componentType" : 5126,
            "count" : 6120,
            "type" : "VEC2"
        },
        {
            "bufferView" : 3,
            "componentType" : 5123,
            "count" : 13206,
            "type" : "SCALAR"
        },
        {
            "bufferView" : 4,
            "componentType" : 5126,
            "count" : 2038,
            "max" : [
                0.1104508638381958,
                0,
                0.10253490507602692
            ],
            "min" : [
                -0.09508535265922546,
                0,
                -0.10270174592733383
            ],
            "type" : "VEC3"
        },
        {
            "bufferView" : 5,
            "componentType" : 5126,
            "count" : 2038,
            "type" : "VEC3"
        },
        {
            "bufferView" : 6,
            "componentType" : 5126,
            "count" : 2038,
            "type" : "VEC2"
        },
        {
            "bufferView" : 7,
            "componentType" : 5123,
            "count" : 4524,
            "type" : "SCALAR"
        }
    ],
    "bufferViews" : [
        {
            "buffer" : 0,
            "byteLength" : 73440,
            "byteOffset" : 0
        },
        {
            "buffer" : 0,
            "byteLength" : 73440,
            "byteOffset" : 73440
        },
        {
            "buffer" : 0,
            "byteLength" : 48960,
            "byteOffset" : 146880
        },
        {
            "buffer" : 0,
            "byteLength" : 26412,
            "byteOffset" : 195840
        },
        {
            "buffer" : 0,
            "byteLength" : 24456,
            "byteOffset" : 222252
        },
        {
            "buffer" : 0,
            "byteLength" : 24456,
            "byteOffset" : 246708
        },
        {
            "buffer" : 0,
            "byteLength" : 16304,
            "byteOffset" : 271164
        },
        {
            "buffer" : 0,
            "byteLength" : 9048,
            "byteOffset" : 287468
        }
    ],
    "buffers" : [
        {
            "byteLength" : 296516,
            "uri" : "data:application/octet-stream;base64,"
        }
    ]
}
