{
    "asset" : {
        "generator" : "Khronos glTF Blender I/O v1.7.33",
        "version" : "2.0"
    },
    "scene" : 0,
    "scenes" : [
        {
            "name" : "Scene",
            "nodes" : [
                0
            ]
        }
    ],
    "nodes" : [
        {
            "mesh" : 0,
            "name" : "Curve.002",
            "translation" : [
                -0.003198184072971344,
                0,
                0.003556951880455017
            ]
        }
    ],
    "materials" : [
        {
            "doubleSided" : true,
            "name" : "SVGMat.425",
            "pbrMetallicRoughness" : {
                "baseColorFactor" : [
                    0.5,
                    0.5,
                    0.5,
                    1
                ],
                "metallicFactor" : 0.4000000059604645,
                "roughnessFactor" : 0.4000000059604645
            }
        }
    ],
    "meshes" : [
        {
            "name" : "Curve.840",
            "primitives" : [
                {
                    "attributes" : {
                        "POSITION" : 0,
                        "NORMAL" : 1,
                        "TEXCOORD_0" : 2
                    },
                    "indices" : 3,
                    "material" : 0
                }
            ]
        }
    ],
    "accessors" : [
        {
            "bufferView" : 0,
            "componentType" : 5126,
            "count" : 65001,
            "max" : [
                0.10559103637933731,
                0.004999999888241291,
                0.0872083380818367
            ],
            "min" : [
                -0.09806710481643677,
                -0.004999999888241291,
                -0.06474131345748901
            ],
            "type" : "VEC3"
        },
        {
            "bufferView" : 1,
            "componentType" : 5126,
            "count" : 65001,
            "type" : "VEC3"
        },
        {
            "bufferView" : 2,
            "componentType" : 5126,
            "count" : 65001,
            "type" : "VEC2"
        },
        {
            "bufferView" : 3,
            "componentType" : 5123,
            "count" : 83232,
            "type" : "SCALAR"
        }
    ],
    "bufferViews" : [
        {
            "buffer" : 0,
            "byteLength" : 780012,
            "byteOffset" : 0
        },
        {
            "buffer" : 0,
            "byteLength" : 780012,
            "byteOffset" : 780012
        },
        {
            "buffer" : 0,
            "byteLength" : 520008,
            "byteOffset" : 1560024
        },
        {
            "buffer" : 0,
            "byteLength" : 166464,
            "byteOffset" : 2080032
        }
    ],
    "buffers" : [
        {
            "byteLength" : 2246496,
            "uri" : "data:application/octet-stream;base64,"
        }
    ]
}
