{
    "asset" : {
        "generator" : "Khronos glTF Blender I/O v1.7.33",
        "version" : "2.0"
    },
    "scene" : 0,
    "scenes" : [
        {
            "name" : "Scene",
            "nodes" : [
                0
            ]
        }
    ],
    "nodes" : [
        {
            "mesh" : 0,
            "name" : "Curve",
            "scale" : [
                0.5,
                0.5,
                0.5
            ],
            "translation" : [
                -0.04212893545627594,
                0,
                0.04625207558274269
            ]
        }
    ],
    "materials" : [
        {
            "doubleSided" : true,
            "name" : "SVGMat.010",
            "pbrMetallicRoughness" : {
                "baseColorFactor" : [
                    0.40724021196365356,
                    0.23839756846427917,
                    0.07618538290262222,
                    1
                ],
                "metallicFactor" : 0,
                "roughnessFactor" : 0.4000000059604645
            }
        },
        {
            "doubleSided" : true,
            "name" : "SVGMat.011",
            "pbrMetallicRoughness" : {
                "baseColorFactor" : [
                    0.008568125776946545,
                    0.005181516520678997,
                    0.002428215928375721,
                    1
                ],
                "metallicFactor" : 0.5,
                "roughnessFactor" : 0.4000000059604645
            }
        }
    ],
    "meshes" : [
        {
            "name" : "Curve.007",
            "primitives" : [
                {
                    "attributes" : {
                        "POSITION" : 0,
                        "NORMAL" : 1,
                        "TEXCOORD_0" : 2
                    },
                    "indices" : 3,
                    "material" : 0
                },
                {
                    "attributes" : {
                        "POSITION" : 4,
                        "NORMAL" : 5,
                        "TEXCOORD_0" : 6
                    },
                    "indices" : 7,
                    "material" : 1
                }
            ]
        }
    ],
    "accessors" : [
        {
            "bufferView" : 0,
            "componentType" : 5126,
            "count" : 30783,
            "max" : [
                0.16939151287078857,
                0,
                -0.035364244133234024
            ],
            "min" : [
                0.0033867359161376953,
                0,
                -0.14567597210407257
            ],
            "type" : "VEC3"
        },
        {
            "bufferView" : 1,
            "componentType" : 5126,
            "count" : 30783,
            "type" : "VEC3"
        },
        {
            "bufferView" : 2,
            "componentType" : 5126,
            "count" : 30783,
            "type" : "VEC2"
        },
        {
            "bufferView" : 3,
            "componentType" : 5123,
            "count" : 69741,
            "type" : "SCALAR"
        },
        {
            "bufferView" : 4,
            "componentType" : 5126,
            "count" : 25540,
            "max" : [
                0.16871525347232819,
                0,
                -0.04174238070845604
            ],
            "min" : [
                0.0039511919021606445,
                0,
                -0.14250265061855316
            ],
            "type" : "VEC3"
        },
        {
            "bufferView" : 5,
            "componentType" : 5126,
            "count" : 25540,
            "type" : "VEC3"
        },
        {
            "bufferView" : 6,
            "componentType" : 5126,
            "count" : 25540,
            "type" : "VEC2"
        },
        {
            "bufferView" : 7,
            "componentType" : 5123,
            "count" : 56658,
            "type" : "SCALAR"
        }
    ],
    "bufferViews" : [
        {
            "buffer" : 0,
            "byteLength" : 369396,
            "byteOffset" : 0
        },
        {
            "buffer" : 0,
            "byteLength" : 369396,
            "byteOffset" : 369396
        },
        {
            "buffer" : 0,
            "byteLength" : 246264,
            "byteOffset" : 738792
        },
        {
            "buffer" : 0,
            "byteLength" : 139482,
            "byteOffset" : 985056
        },
        {
            "buffer" : 0,
            "byteLength" : 306480,
            "byteOffset" : 1124540
        },
        {
            "buffer" : 0,
            "byteLength" : 306480,
            "byteOffset" : 1431020
        },
        {
            "buffer" : 0,
            "byteLength" : 204320,
            "byteOffset" : 1737500
        },
        {
            "buffer" : 0,
            "byteLength" : 113316,
            "byteOffset" : 1941820
        }
    ],
    "buffers" : [
        {
            "byteLength" : 2055136,
            "uri" : "data:application/octet-stream;base64,"
        }
    ]
}
