{
    "asset" : {
        "generator" : "Khronos glTF Blender I/O v1.7.33",
        "version" : "2.0"
    },
    "scene" : 0,
    "scenes" : [
        {
            "name" : "Scene",
            "nodes" : [
                0
            ]
        }
    ],
    "nodes" : [
        {
            "mesh" : 0,
            "name" : "Curve.001"
        }
    ],
    "materials" : [
        {
            "doubleSided" : true,
            "name" : "SVGMat.007",
            "pbrMetallicRoughness" : {
                "baseColorFactor" : [
                    1,
                    1,
                    1,
                    1
                ],
                "metallicFactor" : 0.5,
                "roughnessFactor" : 0.4000000059604645
            }
        },
        {
            "doubleSided" : true,
            "name" : "SVGMat.006",
            "pbrMetallicRoughness" : {
                "baseColorFactor" : [
                    0,
                    0,
                    0,
                    1
                ],
                "metallicFactor" : 0.5,
                "roughnessFactor" : 0.4000000059604645
            }
        }
    ],
    "meshes" : [
        {
            "name" : "Curve.378",
            "primitives" : [
                {
                    "attributes" : {
                        "POSITION" : 0,
                        "NORMAL" : 1,
                        "TEXCOORD_0" : 2
                    },
                    "indices" : 3,
                    "material" : 0
                },
                {
                    "attributes" : {
                        "POSITION" : 4,
                        "NORMAL" : 5,
                        "TEXCOORD_0" : 6
                    },
                    "indices" : 7,
                    "material" : 1
                }
            ]
        }
    ],
    "accessors" : [
        {
            "bufferView" : 0,
            "componentType" : 5126,
            "count" : 24442,
            "max" : [
                0.07865317910909653,
                0,
                0.018080826848745346
            ],
            "min" : [
                -0.06582306325435638,
                0,
                -0.04079269990324974
            ],
            "type" : "VEC3"
        },
        {
            "bufferView" : 1,
            "componentType" : 5126,
            "count" : 24442,
            "type" : "VEC3"
        },
        {
            "bufferView" : 2,
            "componentType" : 5126,
            "count" : 24442,
            "type" : "VEC2"
        },
        {
            "bufferView" : 3,
            "componentType" : 5123,
            "count" : 54423,
            "type" : "SCALAR"
        },
        {
            "bufferView" : 4,
            "componentType" : 5126,
            "count" : 2143,
            "max" : [
                0.00967281311750412,
                0,
                0.017111968249082565
            ],
            "min" : [
                -0.010248638689517975,
                0,
                -0.017388448119163513
            ],
            "type" : "VEC3"
        },
        {
            "bufferView" : 5,
            "componentType" : 5126,
            "count" : 2143,
            "type" : "VEC3"
        },
        {
            "bufferView" : 6,
            "componentType" : 5126,
            "count" : 2143,
            "type" : "VEC2"
        },
        {
            "bufferView" : 7,
            "componentType" : 5123,
            "count" : 4911,
            "type" : "SCALAR"
        }
    ],
    "bufferViews" : [
        {
            "buffer" : 0,
            "byteLength" : 293304,
            "byteOffset" : 0
        },
        {
            "buffer" : 0,
            "byteLength" : 293304,
            "byteOffset" : 293304
        },
        {
            "buffer" : 0,
            "byteLength" : 195536,
            "byteOffset" : 586608
        },
        {
            "buffer" : 0,
            "byteLength" : 108846,
            "byteOffset" : 782144
        },
        {
            "buffer" : 0,
            "byteLength" : 25716,
            "byteOffset" : 890992
        },
        {
            "buffer" : 0,
            "byteLength" : 25716,
            "byteOffset" : 916708
        },
        {
            "buffer" : 0,
            "byteLength" : 17144,
            "byteOffset" : 942424
        },
        {
            "buffer" : 0,
            "byteLength" : 9822,
            "byteOffset" : 959568
        }
    ],
    "buffers" : [
        {
            "byteLength" : 969392,
            "uri" : "data:application/octet-stream;base64,"
        }
    ]
}
