{
    "asset" : {
        "generator" : "Khronos glTF Blender I/O v1.7.33",
        "version" : "2.0"
    },
    "scene" : 0,
    "scenes" : [
        {
            "name" : "Scene",
            "nodes" : [
                0
            ]
        }
    ],
    "nodes" : [
        {
            "mesh" : 0,
            "name" : "Curve",
            "scale" : [
                50,
                50,
                50
            ],
            "translation" : [
                -5.800700664520264,
                0,
                3.6646318435668945
            ]
        }
    ],
    "materials" : [
        {
            "doubleSided" : true,
            "name" : "SVGMat.001",
            "pbrMetallicRoughness" : {
                "baseColorFactor" : [
                    1,
                    1,
                    1,
                    1
                ],
                "metallicFactor" : 0.5,
                "roughnessFactor" : 0.4000000059604645
            }
        }
    ],
    "meshes" : [
        {
            "name" : "Curve",
            "primitives" : [
                {
                    "attributes" : {
                        "POSITION" : 0,
                        "NORMAL" : 1,
                        "TEXCOORD_0" : 2
                    },
                    "indices" : 3,
                    "material" : 0
                }
            ]
        }
    ],
    "accessors" : [
        {
            "bufferView" : 0,
            "componentType" : 5126,
            "count" : 49822,
            "max" : [
                0.18726137280464172,
                0.004999999888241291,
                0
            ],
            "min" : [
                0.00032281590392813087,
                -0.004999999888241291,
                -0.1511291116476059
            ],
            "type" : "VEC3"
        },
        {
            "bufferView" : 1,
            "componentType" : 5126,
            "count" : 49822,
            "type" : "VEC3"
        },
        {
            "bufferView" : 2,
            "componentType" : 5126,
            "count" : 49822,
            "type" : "VEC2"
        },
        {
            "bufferView" : 3,
            "componentType" : 5123,
            "count" : 65472,
            "type" : "SCALAR"
        }
    ],
    "bufferViews" : [
        {
            "buffer" : 0,
            "byteLength" : 597864,
            "byteOffset" : 0
        },
        {
            "buffer" : 0,
            "byteLength" : 597864,
            "byteOffset" : 597864
        },
        {
            "buffer" : 0,
            "byteLength" : 398576,
            "byteOffset" : 1195728
        },
        {
            "buffer" : 0,
            "byteLength" : 130944,
            "byteOffset" : 1594304
        }
    ],
    "buffers" : [
        {
            "byteLength" : 1725248,
            "uri" : "data:application/octet-stream;base64,"
        }
    ]
}
