{
    "asset" : {
        "generator" : "Khronos glTF Blender I/O v1.7.33",
        "version" : "2.0"
    },
    "scene" : 0,
    "scenes" : [
        {
            "name" : "Scene",
            "nodes" : [
                0
            ]
        }
    ],
    "nodes" : [
        {
            "mesh" : 0,
            "name" : "Curve",
            "translation" : [
                -0.08874444663524628,
                0,
                0.058216359466314316
            ]
        }
    ],
    "materials" : [
        {
            "doubleSided" : true,
            "name" : "SVGMat.001",
            "pbrMetallicRoughness" : {
                "baseColorFactor" : [
                    0,
                    0,
                    0,
                    1
                ],
                "metallicFactor" : 0,
                "roughnessFactor" : 0.4000000059604645
            }
        },
        {
            "doubleSided" : true,
            "name" : "SVGMat.002",
            "pbrMetallicRoughness" : {
                "baseColorFactor" : [
                    1,
                    1,
                    1,
                    1
                ],
                "metallicFactor" : 0,
                "roughnessFactor" : 0.4000000059604645
            }
        },
        {
            "doubleSided" : true,
            "name" : "SVGMat.003",
            "pbrMetallicRoughness" : {
                "baseColorFactor" : [
                    1,
                    1,
                    1,
                    1
                ],
                "metallicFactor" : 0,
                "roughnessFactor" : 0.4000000059604645
            }
        }
    ],
    "meshes" : [
        {
            "name" : "Curve",
            "primitives" : [
                {
                    "attributes" : {
                        "POSITION" : 0,
                        "NORMAL" : 1,
                        "TEXCOORD_0" : 2
                    },
                    "indices" : 3,
                    "material" : 0
                },
                {
                    "attributes" : {
                        "POSITION" : 4,
                        "NORMAL" : 5,
                        "TEXCOORD_0" : 6
                    },
                    "indices" : 7,
                    "material" : 1
                },
                {
                    "attributes" : {
                        "POSITION" : 8,
                        "NORMAL" : 9,
                        "TEXCOORD_0" : 10
                    },
                    "indices" : 11,
                    "material" : 2
                }
            ]
        }
    ],
    "accessors" : [
        {
            "bufferView" : 0,
            "componentType" : 5126,
            "count" : 5386,
            "max" : [
                0.06292037665843964,
                0.009999999776482582,
                -0.03831551596522331
            ],
            "min" : [
                0.014598208479583263,
                -0.009999999776482582,
                -0.09215206652879715
            ],
            "type" : "VEC3"
        },
        {
            "bufferView" : 1,
            "componentType" : 5126,
            "count" : 5386,
            "type" : "VEC3"
        },
        {
            "bufferView" : 2,
            "componentType" : 5126,
            "count" : 5386,
            "type" : "VEC2"
        },
        {
            "bufferView" : 3,
            "componentType" : 5123,
            "count" : 6276,
            "type" : "SCALAR"
        },
        {
            "bufferView" : 4,
            "componentType" : 5126,
            "count" : 1797,
            "max" : [
                0.047103989869356155,
                0.009999999776482582,
                -0.09903927892446518
            ],
            "min" : [
                0.03301982954144478,
                -0.009999999776482582,
                -0.11766161024570465
            ],
            "type" : "VEC3"
        },
        {
            "bufferView" : 5,
            "componentType" : 5126,
            "count" : 1797,
            "type" : "VEC3"
        },
        {
            "bufferView" : 6,
            "componentType" : 5126,
            "count" : 1797,
            "type" : "VEC2"
        },
        {
            "bufferView" : 7,
            "componentType" : 5123,
            "count" : 2010,
            "type" : "SCALAR"
        },
        {
            "bufferView" : 8,
            "componentType" : 5126,
            "count" : 11824,
            "max" : [
                0.0674479678273201,
                0.009999999776482582,
                -0.03627629205584526
            ],
            "min" : [
                0.012180048041045666,
                -0.009999999776482582,
                -0.12147065252065659
            ],
            "type" : "VEC3"
        },
        {
            "bufferView" : 9,
            "componentType" : 5126,
            "count" : 11824,
            "type" : "VEC3"
        },
        {
            "bufferView" : 10,
            "componentType" : 5126,
            "count" : 11824,
            "type" : "VEC2"
        },
        {
            "bufferView" : 11,
            "componentType" : 5123,
            "count" : 13416,
            "type" : "SCALAR"
        }
    ],
    "bufferViews" : [
        {
            "buffer" : 0,
            "byteLength" : 64632,
            "byteOffset" : 0
        },
        {
            "buffer" : 0,
            "byteLength" : 64632,
            "byteOffset" : 64632
        },
        {
            "buffer" : 0,
            "byteLength" : 43088,
            "byteOffset" : 129264
        },
        {
            "buffer" : 0,
            "byteLength" : 12552,
            "byteOffset" : 172352
        },
        {
            "buffer" : 0,
            "byteLength" : 21564,
            "byteOffset" : 184904
        },
        {
            "buffer" : 0,
            "byteLength" : 21564,
            "byteOffset" : 206468
        },
        {
            "buffer" : 0,
            "byteLength" : 14376,
            "byteOffset" : 228032
        },
        {
            "buffer" : 0,
            "byteLength" : 4020,
            "byteOffset" : 242408
        },
        {
            "buffer" : 0,
            "byteLength" : 141888,
            "byteOffset" : 246428
        },
        {
            "buffer" : 0,
            "byteLength" : 141888,
            "byteOffset" : 388316
        },
        {
            "buffer" : 0,
            "byteLength" : 94592,
            "byteOffset" : 530204
        },
        {
            "buffer" : 0,
            "byteLength" : 26832,
            "byteOffset" : 624796
        }
    ],
    "buffers" : [
        {
            "byteLength" : 651628,
            "uri" : "data:application/octet-stream;base64,"
        }
    ]
}
