{
    "asset" : {
        "generator" : "Khronos glTF Blender I/O v1.7.33",
        "version" : "2.0"
    },
    "scene" : 0,
    "scenes" : [
        {
            "name" : "Scene",
            "nodes" : [
                0
            ]
        }
    ],
    "nodes" : [
        {
            "mesh" : 0,
            "name" : "Curve.005",
            "translation" : [
                -0.08874444663524628,
                0,
                0.058216359466314316
            ]
        }
    ],
    "materials" : [
        {
            "doubleSided" : true,
            "name" : "SVGMat.006",
            "pbrMetallicRoughness" : {
                "baseColorFactor" : [
                    0.0012141079641878605,
                    0.0012141079641878605,
                    0.0012141079641878605,
                    1
                ],
                "metallicFactor" : 0,
                "roughnessFactor" : 0.4000000059604645
            }
        },
        {
            "doubleSided" : true,
            "name" : "SVGMat.004",
            "pbrMetallicRoughness" : {
                "baseColorFactor" : [
                    1,
                    1,
                    1,
                    1
                ],
                "metallicFactor" : 0,
                "roughnessFactor" : 0.4000000059604645
            }
        },
        {
            "doubleSided" : true,
            "name" : "SVGMat.005",
            "pbrMetallicRoughness" : {
                "baseColorFactor" : [
                    0,
                    0,
                    0,
                    1
                ],
                "metallicFactor" : 0,
                "roughnessFactor" : 0.4000000059604645
            }
        }
    ],
    "meshes" : [
        {
            "name" : "Curve.005",
            "primitives" : [
                {
                    "attributes" : {
                        "POSITION" : 0,
                        "NORMAL" : 1,
                        "TEXCOORD_0" : 2
                    },
                    "indices" : 3,
                    "material" : 0
                },
                {
                    "attributes" : {
                        "POSITION" : 4,
                        "NORMAL" : 5,
                        "TEXCOORD_0" : 6
                    },
                    "indices" : 7,
                    "material" : 1
                },
                {
                    "attributes" : {
                        "POSITION" : 8,
                        "NORMAL" : 9,
                        "TEXCOORD_0" : 10
                    },
                    "indices" : 11,
                    "material" : 2
                }
            ]
        }
    ],
    "accessors" : [
        {
            "bufferView" : 0,
            "componentType" : 5126,
            "count" : 95,
            "max" : [
                0.08860761672258377,
                0,
                0
            ],
            "min" : [
                0.0877729058265686,
                0,
                -0.011851072311401367
            ],
            "type" : "VEC3"
        },
        {
            "bufferView" : 1,
            "componentType" : 5126,
            "count" : 95,
            "type" : "VEC3"
        },
        {
            "bufferView" : 2,
            "componentType" : 5126,
            "count" : 95,
            "type" : "VEC2"
        },
        {
            "bufferView" : 3,
            "componentType" : 5123,
            "count" : 246,
            "type" : "SCALAR"
        },
        {
            "bufferView" : 4,
            "componentType" : 5126,
            "count" : 5344,
            "max" : [
                0.15695299208164215,
                0,
                0
            ],
            "min" : [
                0.0013071036664769053,
                0,
                -0.17686930298805237
            ],
            "type" : "VEC3"
        },
        {
            "bufferView" : 5,
            "componentType" : 5126,
            "count" : 5344,
            "type" : "VEC3"
        },
        {
            "bufferView" : 6,
            "componentType" : 5126,
            "count" : 5344,
            "type" : "VEC2"
        },
        {
            "bufferView" : 7,
            "componentType" : 5123,
            "count" : 12087,
            "type" : "SCALAR"
        },
        {
            "bufferView" : 8,
            "componentType" : 5126,
            "count" : 4782,
            "max" : [
                0.15517519414424896,
                0,
                0
            ],
            "min" : [
                0.0029029794968664646,
                0,
                -0.17517651617527008
            ],
            "type" : "VEC3"
        },
        {
            "bufferView" : 9,
            "componentType" : 5126,
            "count" : 4782,
            "type" : "VEC3"
        },
        {
            "bufferView" : 10,
            "componentType" : 5126,
            "count" : 4782,
            "type" : "VEC2"
        },
        {
            "bufferView" : 11,
            "componentType" : 5123,
            "count" : 10749,
            "type" : "SCALAR"
        }
    ],
    "bufferViews" : [
        {
            "buffer" : 0,
            "byteLength" : 1140,
            "byteOffset" : 0
        },
        {
            "buffer" : 0,
            "byteLength" : 1140,
            "byteOffset" : 1140
        },
        {
            "buffer" : 0,
            "byteLength" : 760,
            "byteOffset" : 2280
        },
        {
            "buffer" : 0,
            "byteLength" : 492,
            "byteOffset" : 3040
        },
        {
            "buffer" : 0,
            "byteLength" : 64128,
            "byteOffset" : 3532
        },
        {
            "buffer" : 0,
            "byteLength" : 64128,
            "byteOffset" : 67660
        },
        {
            "buffer" : 0,
            "byteLength" : 42752,
            "byteOffset" : 131788
        },
        {
            "buffer" : 0,
            "byteLength" : 24174,
            "byteOffset" : 174540
        },
        {
            "buffer" : 0,
            "byteLength" : 57384,
            "byteOffset" : 198716
        },
        {
            "buffer" : 0,
            "byteLength" : 57384,
            "byteOffset" : 256100
        },
        {
            "buffer" : 0,
            "byteLength" : 38256,
            "byteOffset" : 313484
        },
        {
            "buffer" : 0,
            "byteLength" : 21498,
            "byteOffset" : 351740
        }
    ],
    "buffers" : [
        {
            "byteLength" : 373240,
            "uri" : "data:application/octet-stream;base64,"
        }
    ]
}
