{
    "asset" : {
        "generator" : "Khronos glTF Blender I/O v1.7.33",
        "version" : "2.0"
    },
    "scene" : 0,
    "scenes" : [
        {
            "name" : "Scene",
            "nodes" : [
                0
            ]
        }
    ],
    "nodes" : [
        {
            "mesh" : 0,
            "name" : "Curve.004",
            "scale" : [
                50,
                50,
                50
            ]
        }
    ],
    "materials" : [
        {
            "doubleSided" : true,
            "name" : "SVGMat.010",
            "pbrMetallicRoughness" : {
                "baseColorFactor" : [
                    0.05612849071621895,
                    0.05612849071621895,
                    0.05612849071621895,
                    1
                ],
                "metallicFactor" : 0.5,
                "roughnessFactor" : 0.4000000059604645
            }
        },
        {
            "doubleSided" : true,
            "name" : "SVGMat.004",
            "pbrMetallicRoughness" : {
                "baseColorFactor" : [
                    0.16202937066555023,
                    0.08865558356046677,
                    0.04817182570695877,
                    1
                ],
                "metallicFactor" : 0,
                "roughnessFactor" : 0.4000000059604645
            }
        },
        {
            "doubleSided" : true,
            "name" : "SVGMat.005",
            "pbrMetallicRoughness" : {
                "baseColorFactor" : [
                    0.6444796919822693,
                    0.6444796919822693,
                    0.6444796919822693,
                    1
                ],
                "metallicFactor" : 0.5166666507720947,
                "roughnessFactor" : 0.4000000059604645
            }
        },
        {
            "doubleSided" : true,
            "name" : "SVGMat.007",
            "pbrMetallicRoughness" : {
                "baseColorFactor" : [
                    0.0006070539820939302,
                    0.0006070539820939302,
                    0.0006070539820939302,
                    1
                ],
                "metallicFactor" : 0,
                "roughnessFactor" : 0.4000000059604645
            }
        },
        {
            "doubleSided" : true,
            "name" : "SVGMat.009",
            "pbrMetallicRoughness" : {
                "baseColorFactor" : [
                    0.9215818643569946,
                    0.9911020994186401,
                    1,
                    1
                ],
                "metallicFactor" : 0,
                "roughnessFactor" : 0.4000000059604645
            }
        }
    ],
    "meshes" : [
        {
            "name" : "Curve.006",
            "primitives" : [
                {
                    "attributes" : {
                        "POSITION" : 0,
                        "NORMAL" : 1,
                        "TEXCOORD_0" : 2
                    },
                    "indices" : 3,
                    "material" : 0
                },
                {
                    "attributes" : {
                        "POSITION" : 4,
                        "NORMAL" : 5,
                        "TEXCOORD_0" : 6
                    },
                    "indices" : 7,
                    "material" : 1
                },
                {
                    "attributes" : {
                        "POSITION" : 8,
                        "NORMAL" : 9,
                        "TEXCOORD_0" : 10
                    },
                    "indices" : 11,
                    "material" : 2
                },
                {
                    "attributes" : {
                        "POSITION" : 12,
                        "NORMAL" : 13,
                        "TEXCOORD_0" : 14
                    },
                    "indices" : 15,
                    "material" : 3
                },
                {
                    "attributes" : {
                        "POSITION" : 16,
                        "NORMAL" : 17,
                        "TEXCOORD_0" : 18
                    },
                    "indices" : 19,
                    "material" : 4
                }
            ]
        }
    ],
    "accessors" : [
        {
            "bufferView" : 0,
            "componentType" : 5126,
            "count" : 4922,
            "max" : [
                0.05728857219219208,
                0,
                0.09782831370830536
            ],
            "min" : [
                -0.1319558024406433,
                0,
                -0.12278784811496735
            ],
            "type" : "VEC3"
        },
        {
            "bufferView" : 1,
            "componentType" : 5126,
            "count" : 4922,
            "type" : "VEC3"
        },
        {
            "bufferView" : 2,
            "componentType" : 5126,
            "count" : 4922,
            "type" : "VEC2"
        },
        {
            "bufferView" : 3,
            "componentType" : 5123,
            "count" : 11004,
            "type" : "SCALAR"
        },
        {
            "bufferView" : 4,
            "componentType" : 5126,
            "count" : 18991,
            "max" : [
                0.13661544024944305,
                0,
                0.09782804548740387
            ],
            "min" : [
                -0.13180260360240936,
                0,
                -0.09141947329044342
            ],
            "type" : "VEC3"
        },
        {
            "bufferView" : 5,
            "componentType" : 5126,
            "count" : 18991,
            "type" : "VEC3"
        },
        {
            "bufferView" : 6,
            "componentType" : 5126,
            "count" : 18991,
            "type" : "VEC2"
        },
        {
            "bufferView" : 7,
            "componentType" : 5123,
            "count" : 42648,
            "type" : "SCALAR"
        },
        {
            "bufferView" : 8,
            "componentType" : 5126,
            "count" : 10661,
            "max" : [
                0.11156608164310455,
                0,
                0.09782804548740387
            ],
            "min" : [
                -0.11587818711996078,
                0,
                -0.09480413794517517
            ],
            "type" : "VEC3"
        },
        {
            "bufferView" : 9,
            "componentType" : 5126,
            "count" : 10661,
            "type" : "VEC3"
        },
        {
            "bufferView" : 10,
            "componentType" : 5126,
            "count" : 10661,
            "type" : "VEC2"
        },
        {
            "bufferView" : 11,
            "componentType" : 5123,
            "count" : 23967,
            "type" : "SCALAR"
        },
        {
            "bufferView" : 12,
            "componentType" : 5126,
            "count" : 9487,
            "max" : [
                0.06752149760723114,
                0,
                0.019862622022628784
            ],
            "min" : [
                -0.06961917877197266,
                0,
                -0.12558595836162567
            ],
            "type" : "VEC3"
        },
        {
            "bufferView" : 13,
            "componentType" : 5126,
            "count" : 9487,
            "type" : "VEC3"
        },
        {
            "bufferView" : 14,
            "componentType" : 5126,
            "count" : 9487,
            "type" : "VEC2"
        },
        {
            "bufferView" : 15,
            "componentType" : 5123,
            "count" : 21246,
            "type" : "SCALAR"
        },
        {
            "bufferView" : 16,
            "componentType" : 5126,
            "count" : 3419,
            "max" : [
                0.0720304548740387,
                0,
                0.09698154032230377
            ],
            "min" : [
                -0.1154508963227272,
                0,
                -0.09638139605522156
            ],
            "type" : "VEC3"
        },
        {
            "bufferView" : 17,
            "componentType" : 5126,
            "count" : 3419,
            "type" : "VEC3"
        },
        {
            "bufferView" : 18,
            "componentType" : 5126,
            "count" : 3419,
            "type" : "VEC2"
        },
        {
            "bufferView" : 19,
            "componentType" : 5123,
            "count" : 7536,
            "type" : "SCALAR"
        }
    ],
    "bufferViews" : [
        {
            "buffer" : 0,
            "byteLength" : 59064,
            "byteOffset" : 0
        },
        {
            "buffer" : 0,
            "byteLength" : 59064,
            "byteOffset" : 59064
        },
        {
            "buffer" : 0,
            "byteLength" : 39376,
            "byteOffset" : 118128
        },
        {
            "buffer" : 0,
            "byteLength" : 22008,
            "byteOffset" : 157504
        },
        {
            "buffer" : 0,
            "byteLength" : 227892,
            "byteOffset" : 179512
        },
        {
            "buffer" : 0,
            "byteLength" : 227892,
            "byteOffset" : 407404
        },
        {
            "buffer" : 0,
            "byteLength" : 151928,
            "byteOffset" : 635296
        },
        {
            "buffer" : 0,
            "byteLength" : 85296,
            "byteOffset" : 787224
        },
        {
            "buffer" : 0,
            "byteLength" : 127932,
            "byteOffset" : 872520
        },
        {
            "buffer" : 0,
            "byteLength" : 127932,
            "byteOffset" : 1000452
        },
        {
            "buffer" : 0,
            "byteLength" : 85288,
            "byteOffset" : 1128384
        },
        {
            "buffer" : 0,
            "byteLength" : 47934,
            "byteOffset" : 1213672
        },
        {
            "buffer" : 0,
            "byteLength" : 113844,
            "byteOffset" : 1261608
        },
        {
            "buffer" : 0,
            "byteLength" : 113844,
            "byteOffset" : 1375452
        },
        {
            "buffer" : 0,
            "byteLength" : 75896,
            "byteOffset" : 1489296
        },
        {
            "buffer" : 0,
            "byteLength" : 42492,
            "byteOffset" : 1565192
        },
        {
            "buffer" : 0,
            "byteLength" : 41028,
            "byteOffset" : 1607684
        },
        {
            "buffer" : 0,
            "byteLength" : 41028,
            "byteOffset" : 1648712
        },
        {
            "buffer" : 0,
            "byteLength" : 27352,
            "byteOffset" : 1689740
        },
        {
            "buffer" : 0,
            "byteLength" : 15072,
            "byteOffset" : 1717092
        }
    ],
    "buffers" : [
        {
            "byteLength" : 1732164,
            "uri" : "data:application/octet-stream;base64,"
        }
    ]
}
