{
    "asset" : {
        "generator" : "Khronos glTF Blender I/O v1.7.33",
        "version" : "2.0"
    },
    "scene" : 0,
    "scenes" : [
        {
            "name" : "Scene",
            "nodes" : [
                0,
                1,
                2
            ]
        }
    ],
    "nodes" : [
        {
            "mesh" : 0,
            "name" : "Curve",
            "scale" : [
                50,
                50,
                50
            ],
            "translation" : [
                -7.254743576049805,
                0,
                4.302231788635254
            ]
        },
        {
            "mesh" : 1,
            "name" : "Curve.001",
            "scale" : [
                50,
                50,
                50
            ],
            "translation" : [
                -7.254743576049805,
                0,
                4.302231788635254
            ]
        },
        {
            "mesh" : 2,
            "name" : "Curve.002",
            "scale" : [
                50,
                50,
                50
            ],
            "translation" : [
                -7.254743576049805,
                0,
                4.302231788635254
            ]
        }
    ],
    "materials" : [
        {
            "doubleSided" : true,
            "name" : "SVGMat.006",
            "pbrMetallicRoughness" : {
                "baseColorFactor" : [
                    0.4511529505252838,
                    0.4511529505252838,
                    0.4511529505252838,
                    1
                ],
                "metallicFactor" : 0,
                "roughnessFactor" : 0.4000000059604645
            }
        },
        {
            "doubleSided" : true,
            "name" : "white",
            "pbrMetallicRoughness" : {
                "roughnessFactor" : 0.5
            }
        },
        {
            "doubleSided" : true,
            "name" : "SVGMat.008",
            "pbrMetallicRoughness" : {
                "baseColorFactor" : [
                    0.0006070539820939302,
                    0.0006070539820939302,
                    0.0006070539820939302,
                    1
                ],
                "metallicFactor" : 0,
                "roughnessFactor" : 0.4000000059604645
            }
        }
    ],
    "meshes" : [
        {
            "name" : "Curve.032",
            "primitives" : [
                {
                    "attributes" : {
                        "POSITION" : 0,
                        "NORMAL" : 1,
                        "TEXCOORD_0" : 2
                    },
                    "indices" : 3,
                    "material" : 0
                }
            ]
        },
        {
            "name" : "Curve.033",
            "primitives" : [
                {
                    "attributes" : {
                        "POSITION" : 4,
                        "NORMAL" : 5,
                        "TEXCOORD_0" : 6
                    },
                    "indices" : 7,
                    "material" : 1
                }
            ]
        },
        {
            "name" : "Curve.034",
            "primitives" : [
                {
                    "attributes" : {
                        "POSITION" : 8,
                        "NORMAL" : 9,
                        "TEXCOORD_0" : 10
                    },
                    "indices" : 11,
                    "material" : 2
                }
            ]
        }
    ],
    "accessors" : [
        {
            "bufferView" : 0,
            "componentType" : 5126,
            "count" : 2287,
            "max" : [
                0.19669871032238007,
                0,
                -0.0006274480256251991
            ],
            "min" : [
                0.05044382065534592,
                0,
                -0.19420944154262543
            ],
            "type" : "VEC3"
        },
        {
            "bufferView" : 1,
            "componentType" : 5126,
            "count" : 2287,
            "type" : "VEC3"
        },
        {
            "bufferView" : 2,
            "componentType" : 5126,
            "count" : 2287,
            "type" : "VEC2"
        },
        {
            "bufferView" : 3,
            "componentType" : 5123,
            "count" : 5217,
            "type" : "SCALAR"
        },
        {
            "bufferView" : 4,
            "componentType" : 5126,
            "count" : 8404,
            "max" : [
                0.25735026597976685,
                0,
                -2.599667277536355e-05
            ],
            "min" : [
                0.02996142953634262,
                0,
                -0.22061589360237122
            ],
            "type" : "VEC3"
        },
        {
            "bufferView" : 5,
            "componentType" : 5126,
            "count" : 8404,
            "type" : "VEC3"
        },
        {
            "bufferView" : 6,
            "componentType" : 5126,
            "count" : 8404,
            "type" : "VEC2"
        },
        {
            "bufferView" : 7,
            "componentType" : 5123,
            "count" : 18636,
            "type" : "SCALAR"
        },
        {
            "bufferView" : 8,
            "componentType" : 5126,
            "count" : 27504,
            "max" : [
                0.28241685032844543,
                0,
                2.3990869522094727e-05
            ],
            "min" : [
                0.01395585760474205,
                0,
                -0.22341400384902954
            ],
            "type" : "VEC3"
        },
        {
            "bufferView" : 9,
            "componentType" : 5126,
            "count" : 27504,
            "type" : "VEC3"
        },
        {
            "bufferView" : 10,
            "componentType" : 5126,
            "count" : 27504,
            "type" : "VEC2"
        },
        {
            "bufferView" : 11,
            "componentType" : 5123,
            "count" : 62259,
            "type" : "SCALAR"
        }
    ],
    "bufferViews" : [
        {
            "buffer" : 0,
            "byteLength" : 27444,
            "byteOffset" : 0
        },
        {
            "buffer" : 0,
            "byteLength" : 27444,
            "byteOffset" : 27444
        },
        {
            "buffer" : 0,
            "byteLength" : 18296,
            "byteOffset" : 54888
        },
        {
            "buffer" : 0,
            "byteLength" : 10434,
            "byteOffset" : 73184
        },
        {
            "buffer" : 0,
            "byteLength" : 100848,
            "byteOffset" : 83620
        },
        {
            "buffer" : 0,
            "byteLength" : 100848,
            "byteOffset" : 184468
        },
        {
            "buffer" : 0,
            "byteLength" : 67232,
            "byteOffset" : 285316
        },
        {
            "buffer" : 0,
            "byteLength" : 37272,
            "byteOffset" : 352548
        },
        {
            "buffer" : 0,
            "byteLength" : 330048,
            "byteOffset" : 389820
        },
        {
            "buffer" : 0,
            "byteLength" : 330048,
            "byteOffset" : 719868
        },
        {
            "buffer" : 0,
            "byteLength" : 220032,
            "byteOffset" : 1049916
        },
        {
            "buffer" : 0,
            "byteLength" : 124518,
            "byteOffset" : 1269948
        }
    ],
    "buffers" : [
        {
            "byteLength" : 1394468,
            "uri" : "data:application/octet-stream;base64,"
        }
    ]
}
