{
    "asset" : {
        "generator" : "Khronos glTF Blender I/O v1.7.33",
        "version" : "2.0"
    },
    "scene" : 0,
    "scenes" : [
        {
            "name" : "Scene",
            "nodes" : [
                0
            ]
        }
    ],
    "nodes" : [
        {
            "mesh" : 0,
            "name" : "Curve.002",
            "translation" : [
                -0.15281066298484802,
                0,
                0.1510440707206726
            ]
        }
    ],
    "materials" : [
        {
            "doubleSided" : true,
            "name" : "SVGMat.010",
            "pbrMetallicRoughness" : {
                "baseColorFactor" : [
                    0.0027317428030073643,
                    0.0027317428030073643,
                    0.0027317428030073643,
                    1
                ],
                "metallicFactor" : 0,
                "roughnessFactor" : 0.4000000059604645
            }
        },
        {
            "doubleSided" : true,
            "name" : "SVGMat.008",
            "pbrMetallicRoughness" : {
                "baseColorFactor" : [
                    0.9386857151985168,
                    0.9386857151985168,
                    0.9386857151985168,
                    1
                ],
                "metallicFactor" : 0,
                "roughnessFactor" : 0.4000000059604645
            }
        }
    ],
    "meshes" : [
        {
            "name" : "Curve.268",
            "primitives" : [
                {
                    "attributes" : {
                        "POSITION" : 0,
                        "NORMAL" : 1,
                        "TEXCOORD_0" : 2
                    },
                    "indices" : 3,
                    "material" : 0
                },
                {
                    "attributes" : {
                        "POSITION" : 4,
                        "NORMAL" : 5,
                        "TEXCOORD_0" : 6
                    },
                    "indices" : 7,
                    "material" : 1
                }
            ]
        }
    ],
    "accessors" : [
        {
            "bufferView" : 0,
            "componentType" : 5126,
            "count" : 39909,
            "max" : [
                0.2816336452960968,
                0,
                -0.02091177925467491
            ],
            "min" : [
                0.023762192577123642,
                0,
                -0.2803850769996643
            ],
            "type" : "VEC3"
        },
        {
            "bufferView" : 1,
            "componentType" : 5126,
            "count" : 39909,
            "type" : "VEC3"
        },
        {
            "bufferView" : 2,
            "componentType" : 5126,
            "count" : 39909,
            "type" : "VEC2"
        },
        {
            "bufferView" : 3,
            "componentType" : 5123,
            "count" : 88968,
            "type" : "SCALAR"
        },
        {
            "bufferView" : 4,
            "componentType" : 5126,
            "count" : 35832,
            "max" : [
                0.22685027122497559,
                0,
                -0.06182849779725075
            ],
            "min" : [
                0.07481258362531662,
                0,
                -0.23571190237998962
            ],
            "type" : "VEC3"
        },
        {
            "bufferView" : 5,
            "componentType" : 5126,
            "count" : 35832,
            "type" : "VEC3"
        },
        {
            "bufferView" : 6,
            "componentType" : 5126,
            "count" : 35832,
            "type" : "VEC2"
        },
        {
            "bufferView" : 7,
            "componentType" : 5123,
            "count" : 80649,
            "type" : "SCALAR"
        }
    ],
    "bufferViews" : [
        {
            "buffer" : 0,
            "byteLength" : 478908,
            "byteOffset" : 0
        },
        {
            "buffer" : 0,
            "byteLength" : 478908,
            "byteOffset" : 478908
        },
        {
            "buffer" : 0,
            "byteLength" : 319272,
            "byteOffset" : 957816
        },
        {
            "buffer" : 0,
            "byteLength" : 177936,
            "byteOffset" : 1277088
        },
        {
            "buffer" : 0,
            "byteLength" : 429984,
            "byteOffset" : 1455024
        },
        {
            "buffer" : 0,
            "byteLength" : 429984,
            "byteOffset" : 1885008
        },
        {
            "buffer" : 0,
            "byteLength" : 286656,
            "byteOffset" : 2314992
        },
        {
            "buffer" : 0,
            "byteLength" : 161298,
            "byteOffset" : 2601648
        }
    ],
    "buffers" : [
        {
            "byteLength" : 2762948,
            "uri" : "data:application/octet-stream;base64,"
        }
    ]
}
