{
    "asset" : {
        "generator" : "Khronos glTF Blender I/O v1.7.33",
        "version" : "2.0"
    },
    "scene" : 0,
    "scenes" : [
        {
            "name" : "Scene",
            "nodes" : [
                0
            ]
        }
    ],
    "nodes" : [
        {
            "mesh" : 0,
            "name" : "Curve.002",
            "translation" : [
                0.052535321563482285,
                0,
                0.03111317753791809
            ]
        }
    ],
    "materials" : [
        {
            "doubleSided" : true,
            "name" : "SVGMat.003",
            "pbrMetallicRoughness" : {
                "baseColorFactor" : [
                    0.8549926280975342,
                    0.010960093699395657,
                    0.017641954123973846,
                    1
                ],
                "metallicFactor" : 0.10000000149011612,
                "roughnessFactor" : 0.4000000059604645
            }
        }
    ],
    "meshes" : [
        {
            "name" : "Curve.002",
            "primitives" : [
                {
                    "attributes" : {
                        "POSITION" : 0,
                        "NORMAL" : 1,
                        "TEXCOORD_0" : 2
                    },
                    "indices" : 3,
                    "material" : 0
                }
            ]
        }
    ],
    "accessors" : [
        {
            "bufferView" : 0,
            "componentType" : 5126,
            "count" : 84402,
            "max" : [
                0.14234095811843872,
                0.004999999888241291,
                0.08517526090145111
            ],
            "min" : [
                -0.1310499757528305,
                -0.004999999888241291,
                -0.0945366770029068
            ],
            "type" : "VEC3"
        },
        {
            "bufferView" : 1,
            "componentType" : 5126,
            "count" : 84402,
            "type" : "VEC3"
        },
        {
            "bufferView" : 2,
            "componentType" : 5126,
            "count" : 84402,
            "type" : "VEC2"
        },
        {
            "bufferView" : 3,
            "componentType" : 5125,
            "count" : 108204,
            "type" : "SCALAR"
        }
    ],
    "bufferViews" : [
        {
            "buffer" : 0,
            "byteLength" : 1012824,
            "byteOffset" : 0
        },
        {
            "buffer" : 0,
            "byteLength" : 1012824,
            "byteOffset" : 1012824
        },
        {
            "buffer" : 0,
            "byteLength" : 675216,
            "byteOffset" : 2025648
        },
        {
            "buffer" : 0,
            "byteLength" : 432816,
            "byteOffset" : 2700864
        }
    ],
    "buffers" : [
        {
            "byteLength" : 3133680,
            "uri" : "data:application/octet-stream;base64,"
        }
    ]
}
