{
    "asset" : {
        "generator" : "Khronos glTF Blender I/O v1.7.33",
        "version" : "2.0"
    },
    "scene" : 0,
    "scenes" : [
        {
            "name" : "Scene",
            "nodes" : [
                0
            ]
        }
    ],
    "nodes" : [
        {
            "mesh" : 0,
            "name" : "Curve"
        }
    ],
    "materials" : [
        {
            "doubleSided" : true,
            "name" : "SVGMat.001",
            "pbrMetallicRoughness" : {
                "baseColorFactor" : [
                    0.538228452205658,
                    0.538228452205658,
                    0.538228452205658,
                    1
                ],
                "metallicFactor" : 0.10000000149011612,
                "roughnessFactor" : 0.4000000059604645
            }
        }
    ],
    "meshes" : [
        {
            "name" : "Curve",
            "primitives" : [
                {
                    "attributes" : {
                        "POSITION" : 0,
                        "NORMAL" : 1,
                        "TEXCOORD_0" : 2
                    },
                    "indices" : 3,
                    "material" : 0
                }
            ]
        }
    ],
    "accessors" : [
        {
            "bufferView" : 0,
            "componentType" : 5126,
            "count" : 1369,
            "max" : [
                0.011476300656795502,
                0,
                0.01406052429229021
            ],
            "min" : [
                -0.007747936993837357,
                0,
                -0.012745472602546215
            ],
            "type" : "VEC3"
        },
        {
            "bufferView" : 1,
            "componentType" : 5126,
            "count" : 1369,
            "type" : "VEC3"
        },
        {
            "bufferView" : 2,
            "componentType" : 5126,
            "count" : 1369,
            "type" : "VEC2"
        },
        {
            "bufferView" : 3,
            "componentType" : 5123,
            "count" : 3069,
            "type" : "SCALAR"
        }
    ],
    "bufferViews" : [
        {
            "buffer" : 0,
            "byteLength" : 16428,
            "byteOffset" : 0
        },
        {
            "buffer" : 0,
            "byteLength" : 16428,
            "byteOffset" : 16428
        },
        {
            "buffer" : 0,
            "byteLength" : 10952,
            "byteOffset" : 32856
        },
        {
            "buffer" : 0,
            "byteLength" : 6138,
            "byteOffset" : 43808
        }
    ],
    "buffers" : [
        {
            "byteLength" : 49948,
            "uri" : "data:application/octet-stream;base64,"
        }
    ]
}
