{
    "asset" : {
        "generator" : "Khronos glTF Blender I/O v1.7.33",
        "version" : "2.0"
    },
    "scene" : 0,
    "scenes" : [
        {
            "name" : "Scene",
            "nodes" : [
                0
            ]
        }
    ],
    "nodes" : [
        {
            "mesh" : 0,
            "name" : "Curve.002",
            "translation" : [
                0.009110026061534882,
                0,
                0.004111267626285553
            ]
        }
    ],
    "materials" : [
        {
            "doubleSided" : true,
            "name" : "SVGMat.009",
            "pbrMetallicRoughness" : {
                "baseColorFactor" : [
                    0.4507857859134674,
                    0.006048833020031452,
                    0.009134058840572834,
                    1
                ],
                "metallicFactor" : 0,
                "roughnessFactor" : 0.4000000059604645
            }
        },
        {
            "doubleSided" : true,
            "name" : "SVGMat.008",
            "pbrMetallicRoughness" : {
                "baseColorFactor" : [
                    0.0027317428030073643,
                    0.0006070539820939302,
                    0,
                    1
                ],
                "metallicFactor" : 0,
                "roughnessFactor" : 0.4000000059604645
            }
        }
    ],
    "meshes" : [
        {
            "name" : "Curve.008",
            "primitives" : [
                {
                    "attributes" : {
                        "POSITION" : 0,
                        "NORMAL" : 1,
                        "TEXCOORD_0" : 2
                    },
                    "indices" : 3,
                    "material" : 0
                },
                {
                    "attributes" : {
                        "POSITION" : 4,
                        "NORMAL" : 5,
                        "TEXCOORD_0" : 6
                    },
                    "indices" : 7,
                    "material" : 1
                }
            ]
        }
    ],
    "accessors" : [
        {
            "bufferView" : 0,
            "componentType" : 5126,
            "count" : 15290,
            "max" : [
                0.08869363367557526,
                0,
                0.029048264026641846
            ],
            "min" : [
                -0.0905717983841896,
                0,
                -0.03790564462542534
            ],
            "type" : "VEC3"
        },
        {
            "bufferView" : 1,
            "componentType" : 5126,
            "count" : 15290,
            "type" : "VEC3"
        },
        {
            "bufferView" : 2,
            "componentType" : 5126,
            "count" : 15290,
            "type" : "VEC2"
        },
        {
            "bufferView" : 3,
            "componentType" : 5123,
            "count" : 33735,
            "type" : "SCALAR"
        },
        {
            "bufferView" : 4,
            "componentType" : 5126,
            "count" : 15582,
            "max" : [
                0.08977652341127396,
                0,
                0.030423711985349655
            ],
            "min" : [
                -0.09169619530439377,
                0,
                -0.04165905714035034
            ],
            "type" : "VEC3"
        },
        {
            "bufferView" : 5,
            "componentType" : 5126,
            "count" : 15582,
            "type" : "VEC3"
        },
        {
            "bufferView" : 6,
            "componentType" : 5126,
            "count" : 15582,
            "type" : "VEC2"
        },
        {
            "bufferView" : 7,
            "componentType" : 5123,
            "count" : 34971,
            "type" : "SCALAR"
        }
    ],
    "bufferViews" : [
        {
            "buffer" : 0,
            "byteLength" : 183480,
            "byteOffset" : 0
        },
        {
            "buffer" : 0,
            "byteLength" : 183480,
            "byteOffset" : 183480
        },
        {
            "buffer" : 0,
            "byteLength" : 122320,
            "byteOffset" : 366960
        },
        {
            "buffer" : 0,
            "byteLength" : 67470,
            "byteOffset" : 489280
        },
        {
            "buffer" : 0,
            "byteLength" : 186984,
            "byteOffset" : 556752
        },
        {
            "buffer" : 0,
            "byteLength" : 186984,
            "byteOffset" : 743736
        },
        {
            "buffer" : 0,
            "byteLength" : 124656,
            "byteOffset" : 930720
        },
        {
            "buffer" : 0,
            "byteLength" : 69942,
            "byteOffset" : 1055376
        }
    ],
    "buffers" : [
        {
            "byteLength" : 1125320,
            "uri" : "data:application/octet-stream;base64,"
        }
    ]
}
