{
    "asset" : {
        "generator" : "Khronos glTF Blender I/O v1.7.33",
        "version" : "2.0"
    },
    "scene" : 0,
    "scenes" : [
        {
            "name" : "Scene",
            "nodes" : [
                0
            ]
        }
    ],
    "nodes" : [
        {
            "mesh" : 0,
            "name" : "Curve",
            "translation" : [
                0.012347392737865448,
                0,
                0.0038006603717803955
            ]
        }
    ],
    "materials" : [
        {
            "doubleSided" : true,
            "name" : "SVGMat.007",
            "pbrMetallicRoughness" : {
                "baseColorFactor" : [
                    0.6172066926956177,
                    0.6444798707962036,
                    0.6795425415039062,
                    1
                ],
                "metallicFactor" : 0,
                "roughnessFactor" : 0.4000000059604645
            }
        }
    ],
    "meshes" : [
        {
            "name" : "Curve.006",
            "primitives" : [
                {
                    "attributes" : {
                        "POSITION" : 0,
                        "NORMAL" : 1,
                        "TEXCOORD_0" : 2
                    },
                    "indices" : 3,
                    "material" : 0
                }
            ]
        }
    ],
    "accessors" : [
        {
            "bufferView" : 0,
            "componentType" : 5126,
            "count" : 50791,
            "max" : [
                0.07806768268346786,
                0.004999999888241291,
                0.024416252970695496
            ],
            "min" : [
                -0.08830571919679642,
                -0.004999999888241291,
                -0.030311083421111107
            ],
            "type" : "VEC3"
        },
        {
            "bufferView" : 1,
            "componentType" : 5126,
            "count" : 50791,
            "type" : "VEC3"
        },
        {
            "bufferView" : 2,
            "componentType" : 5126,
            "count" : 50791,
            "type" : "VEC2"
        },
        {
            "bufferView" : 3,
            "componentType" : 5123,
            "count" : 65460,
            "type" : "SCALAR"
        }
    ],
    "bufferViews" : [
        {
            "buffer" : 0,
            "byteLength" : 609492,
            "byteOffset" : 0
        },
        {
            "buffer" : 0,
            "byteLength" : 609492,
            "byteOffset" : 609492
        },
        {
            "buffer" : 0,
            "byteLength" : 406328,
            "byteOffset" : 1218984
        },
        {
            "buffer" : 0,
            "byteLength" : 130920,
            "byteOffset" : 1625312
        }
    ],
    "buffers" : [
        {
            "byteLength" : 1756232,
            "uri" : "data:application/octet-stream;base64,"
        }
    ]
}
