{
    "asset" : {
        "generator" : "Khronos glTF Blender I/O v1.7.33",
        "version" : "2.0"
    },
    "scene" : 0,
    "scenes" : [
        {
            "name" : "Scene",
            "nodes" : [
                0
            ]
        }
    ],
    "nodes" : [
        {
            "mesh" : 0,
            "name" : "Curve",
            "scale" : [
                50,
                50,
                50
            ]
        }
    ],
    "materials" : [
        {
            "doubleSided" : true,
            "name" : "SVGMat.001",
            "pbrMetallicRoughness" : {
                "baseColorFactor" : [
                    1,
                    0.0722716897726059,
                    0.33716362714767456,
                    1
                ],
                "metallicFactor" : 0.5,
                "roughnessFactor" : 0.4000000059604645
            }
        }
    ],
    "meshes" : [
        {
            "name" : "Curve",
            "primitives" : [
                {
                    "attributes" : {
                        "POSITION" : 0,
                        "NORMAL" : 1,
                        "TEXCOORD_0" : 2
                    },
                    "indices" : 3,
                    "material" : 0
                }
            ]
        }
    ],
    "accessors" : [
        {
            "bufferView" : 0,
            "componentType" : 5126,
            "count" : 34312,
            "max" : [
                0.14952273666858673,
                0.004999999888241291,
                0.05219273269176483
            ],
            "min" : [
                -0.11908380687236786,
                -0.004999999888241291,
                -0.04708389565348625
            ],
            "type" : "VEC3"
        },
        {
            "bufferView" : 1,
            "componentType" : 5126,
            "count" : 34312,
            "type" : "VEC3"
        },
        {
            "bufferView" : 2,
            "componentType" : 5126,
            "count" : 34312,
            "type" : "VEC2"
        },
        {
            "bufferView" : 3,
            "componentType" : 5123,
            "count" : 46236,
            "type" : "SCALAR"
        }
    ],
    "bufferViews" : [
        {
            "buffer" : 0,
            "byteLength" : 411744,
            "byteOffset" : 0
        },
        {
            "buffer" : 0,
            "byteLength" : 411744,
            "byteOffset" : 411744
        },
        {
            "buffer" : 0,
            "byteLength" : 274496,
            "byteOffset" : 823488
        },
        {
            "buffer" : 0,
            "byteLength" : 92472,
            "byteOffset" : 1097984
        }
    ],
    "buffers" : [
        {
            "byteLength" : 1190456,
            "uri" : "data:application/octet-stream;base64,"
        }
    ]
}
