{
    "asset" : {
        "generator" : "Khronos glTF Blender I/O v1.7.33",
        "version" : "2.0"
    },
    "scene" : 0,
    "scenes" : [
        {
            "name" : "Scene",
            "nodes" : [
                0
            ]
        }
    ],
    "nodes" : [
        {
            "mesh" : 0,
            "name" : "Curve.528",
            "scale" : [
                0.5,
                0.5,
                0.5
            ],
            "translation" : [
                -0.06775104254484177,
                0,
                0.07826415449380875
            ]
        }
    ],
    "materials" : [
        {
            "doubleSided" : true,
            "name" : "SVGMat.008",
            "pbrMetallicRoughness" : {
                "baseColorFactor" : [
                    0,
                    0,
                    0,
                    1
                ],
                "metallicFactor" : 0,
                "roughnessFactor" : 0.4000000059604645
            }
        }
    ],
    "meshes" : [
        {
            "name" : "Curve.744",
            "primitives" : [
                {
                    "attributes" : {
                        "POSITION" : 0,
                        "NORMAL" : 1,
                        "TEXCOORD_0" : 2
                    },
                    "indices" : 3,
                    "material" : 0
                }
            ]
        }
    ],
    "accessors" : [
        {
            "bufferView" : 0,
            "componentType" : 5126,
            "count" : 31383,
            "max" : [
                0.3546328842639923,
                0,
                -0.005449963267892599
            ],
            "min" : [
                0.0414418950676918,
                0,
                -0.9525948166847229
            ],
            "type" : "VEC3"
        },
        {
            "bufferView" : 1,
            "componentType" : 5126,
            "count" : 31383,
            "type" : "VEC3"
        },
        {
            "bufferView" : 2,
            "componentType" : 5126,
            "count" : 31383,
            "type" : "VEC2"
        },
        {
            "bufferView" : 3,
            "componentType" : 5123,
            "count" : 73857,
            "type" : "SCALAR"
        }
    ],
    "bufferViews" : [
        {
            "buffer" : 0,
            "byteLength" : 376596,
            "byteOffset" : 0
        },
        {
            "buffer" : 0,
            "byteLength" : 376596,
            "byteOffset" : 376596
        },
        {
            "buffer" : 0,
            "byteLength" : 251064,
            "byteOffset" : 753192
        },
        {
            "buffer" : 0,
            "byteLength" : 147714,
            "byteOffset" : 1004256
        }
    ],
    "buffers" : [
        {
            "byteLength" : 1151972,
            "uri" : "data:application/octet-stream;base64,"
        }
    ]
}
