{
    "asset" : {
        "generator" : "Khronos glTF Blender I/O v1.7.33",
        "version" : "2.0"
    },
    "scene" : 0,
    "scenes" : [
        {
            "name" : "Scene",
            "nodes" : [
                0
            ]
        }
    ],
    "nodes" : [
        {
            "mesh" : 0,
            "name" : "Curve.028"
        }
    ],
    "materials" : [
        {
            "doubleSided" : true,
            "name" : "SVGMat.001",
            "pbrMetallicRoughness" : {
                "baseColorFactor" : [
                    1,
                    1,
                    1,
                    1
                ],
                "metallicFactor" : 0.5,
                "roughnessFactor" : 0.4000000059604645
            }
        }
    ],
    "meshes" : [
        {
            "name" : "Curve.028",
            "primitives" : [
                {
                    "attributes" : {
                        "POSITION" : 0,
                        "NORMAL" : 1,
                        "TEXCOORD_0" : 2
                    },
                    "indices" : 3,
                    "material" : 0
                }
            ]
        }
    ],
    "accessors" : [
        {
            "bufferView" : 0,
            "componentType" : 5126,
            "count" : 65860,
            "max" : [
                0.03245748579502106,
                0.004999999888241291,
                0.04120863229036331
            ],
            "min" : [
                -0.036017194390296936,
                -0.004999999888241291,
                -0.0409352146089077
            ],
            "type" : "VEC3"
        },
        {
            "bufferView" : 1,
            "componentType" : 5126,
            "count" : 65860,
            "type" : "VEC3"
        },
        {
            "bufferView" : 2,
            "componentType" : 5126,
            "count" : 65860,
            "type" : "VEC2"
        },
        {
            "bufferView" : 3,
            "componentType" : 5125,
            "count" : 74928,
            "type" : "SCALAR"
        }
    ],
    "bufferViews" : [
        {
            "buffer" : 0,
            "byteLength" : 790320,
            "byteOffset" : 0
        },
        {
            "buffer" : 0,
            "byteLength" : 790320,
            "byteOffset" : 790320
        },
        {
            "buffer" : 0,
            "byteLength" : 526880,
            "byteOffset" : 1580640
        },
        {
            "buffer" : 0,
            "byteLength" : 299712,
            "byteOffset" : 2107520
        }
    ],
    "buffers" : [
        {
            "byteLength" : 2407232,
            "uri" : "data:application/octet-stream;base64,"
        }
    ]
}
