{
    "asset" : {
        "generator" : "Khronos glTF Blender I/O v1.7.33",
        "version" : "2.0"
    },
    "scene" : 0,
    "scenes" : [
        {
            "name" : "Scene",
            "nodes" : [
                0
            ]
        }
    ],
    "nodes" : [
        {
            "mesh" : 0,
            "name" : "Curve",
            "translation" : [
                -0.0028573721647262573,
                0,
                -0.0031430386006832123
            ]
        }
    ],
    "materials" : [
        {
            "doubleSided" : true,
            "name" : "SVGMat.001",
            "pbrMetallicRoughness" : {
                "baseColorFactor" : [
                    0.009999999776482582,
                    0.009999999776482582,
                    0.009999999776482582,
                    1
                ],
                "metallicFactor" : 0.20000000298023224,
                "roughnessFactor" : 0.4000000059604645
            }
        }
    ],
    "meshes" : [
        {
            "name" : "Curve",
            "primitives" : [
                {
                    "attributes" : {
                        "POSITION" : 0,
                        "NORMAL" : 1,
                        "TEXCOORD_0" : 2
                    },
                    "indices" : 3,
                    "material" : 0
                }
            ]
        }
    ],
    "accessors" : [
        {
            "bufferView" : 0,
            "componentType" : 5126,
            "count" : 4586,
            "max" : [
                0.08422955125570297,
                0,
                0.029145129024982452
            ],
            "min" : [
                -0.06432214379310608,
                0,
                -0.030628392472863197
            ],
            "type" : "VEC3"
        },
        {
            "bufferView" : 1,
            "componentType" : 5126,
            "count" : 4586,
            "type" : "VEC3"
        },
        {
            "bufferView" : 2,
            "componentType" : 5126,
            "count" : 4586,
            "type" : "VEC2"
        },
        {
            "bufferView" : 3,
            "componentType" : 5123,
            "count" : 10350,
            "type" : "SCALAR"
        }
    ],
    "bufferViews" : [
        {
            "buffer" : 0,
            "byteLength" : 55032,
            "byteOffset" : 0
        },
        {
            "buffer" : 0,
            "byteLength" : 55032,
            "byteOffset" : 55032
        },
        {
            "buffer" : 0,
            "byteLength" : 36688,
            "byteOffset" : 110064
        },
        {
            "buffer" : 0,
            "byteLength" : 20700,
            "byteOffset" : 146752
        }
    ],
    "buffers" : [
        {
            "byteLength" : 167452,
            "uri" : "data:application/octet-stream;base64,"
        }
    ]
}
