{
    "asset" : {
        "generator" : "Khronos glTF Blender I/O v1.7.33",
        "version" : "2.0"
    },
    "scene" : 0,
    "scenes" : [
        {
            "name" : "Scene",
            "nodes" : [
                0
            ]
        }
    ],
    "nodes" : [
        {
            "mesh" : 0,
            "name" : "Curve.001",
            "translation" : [
                0.001157313585281372,
                0,
                0.0269593708217144
            ]
        }
    ],
    "materials" : [
        {
            "doubleSided" : true,
            "name" : "SVGMat.002",
            "pbrMetallicRoughness" : {
                "baseColorFactor" : [
                    0,
                    0,
                    0,
                    1
                ],
                "metallicFactor" : 0.20000000298023224,
                "roughnessFactor" : 0.4000000059604645
            }
        }
    ],
    "meshes" : [
        {
            "name" : "Curve.001",
            "primitives" : [
                {
                    "attributes" : {
                        "POSITION" : 0,
                        "NORMAL" : 1,
                        "TEXCOORD_0" : 2
                    },
                    "indices" : 3,
                    "material" : 0
                }
            ]
        }
    ],
    "accessors" : [
        {
            "bufferView" : 0,
            "componentType" : 5126,
            "count" : 4414,
            "max" : [
                0.04582801088690758,
                0,
                0.023081982508301735
            ],
            "min" : [
                -0.037994809448719025,
                0,
                -0.018115481361746788
            ],
            "type" : "VEC3"
        },
        {
            "bufferView" : 1,
            "componentType" : 5126,
            "count" : 4414,
            "type" : "VEC3"
        },
        {
            "bufferView" : 2,
            "componentType" : 5126,
            "count" : 4414,
            "type" : "VEC2"
        },
        {
            "bufferView" : 3,
            "componentType" : 5123,
            "count" : 9915,
            "type" : "SCALAR"
        }
    ],
    "bufferViews" : [
        {
            "buffer" : 0,
            "byteLength" : 52968,
            "byteOffset" : 0
        },
        {
            "buffer" : 0,
            "byteLength" : 52968,
            "byteOffset" : 52968
        },
        {
            "buffer" : 0,
            "byteLength" : 35312,
            "byteOffset" : 105936
        },
        {
            "buffer" : 0,
            "byteLength" : 19830,
            "byteOffset" : 141248
        }
    ],
    "buffers" : [
        {
            "byteLength" : 161080,
            "uri" : "data:application/octet-stream;base64,"
        }
    ]
}
