{
    "asset" : {
        "generator" : "Khronos glTF Blender I/O v1.7.33",
        "version" : "2.0"
    },
    "scene" : 0,
    "scenes" : [
        {
            "name" : "Scene",
            "nodes" : [
                0
            ]
        }
    ],
    "nodes" : [
        {
            "mesh" : 0,
            "name" : "Curve.002",
            "translation" : [
                0.0026575028896331787,
                0,
                -0.04007979854941368
            ]
        }
    ],
    "materials" : [
        {
            "doubleSided" : true,
            "name" : "SVGMat.003",
            "pbrMetallicRoughness" : {
                "baseColorFactor" : [
                    0.39675524830818176,
                    0.4125427305698395,
                    0.4677838683128357,
                    1
                ],
                "metallicFactor" : 0.5,
                "roughnessFactor" : 0.4000000059604645
            }
        }
    ],
    "meshes" : [
        {
            "name" : "Curve.002",
            "primitives" : [
                {
                    "attributes" : {
                        "POSITION" : 0,
                        "NORMAL" : 1,
                        "TEXCOORD_0" : 2
                    },
                    "indices" : 3,
                    "material" : 0
                }
            ]
        }
    ],
    "accessors" : [
        {
            "bufferView" : 0,
            "componentType" : 5126,
            "count" : 1434,
            "max" : [
                0.006482064723968506,
                0,
                0.013405561447143555
            ],
            "min" : [
                -0.009177349507808685,
                0,
                -0.015249766409397125
            ],
            "type" : "VEC3"
        },
        {
            "bufferView" : 1,
            "componentType" : 5126,
            "count" : 1434,
            "type" : "VEC3"
        },
        {
            "bufferView" : 2,
            "componentType" : 5126,
            "count" : 1434,
            "type" : "VEC2"
        },
        {
            "bufferView" : 3,
            "componentType" : 5123,
            "count" : 3177,
            "type" : "SCALAR"
        }
    ],
    "bufferViews" : [
        {
            "buffer" : 0,
            "byteLength" : 17208,
            "byteOffset" : 0
        },
        {
            "buffer" : 0,
            "byteLength" : 17208,
            "byteOffset" : 17208
        },
        {
            "buffer" : 0,
            "byteLength" : 11472,
            "byteOffset" : 34416
        },
        {
            "buffer" : 0,
            "byteLength" : 6354,
            "byteOffset" : 45888
        }
    ],
    "buffers" : [
        {
            "byteLength" : 52244,
            "uri" : "data:application/octet-stream;base64,"
        }
    ]
}
