{
    "asset" : {
        "generator" : "Khronos glTF Blender I/O v1.7.33",
        "version" : "2.0"
    },
    "scene" : 0,
    "scenes" : [
        {
            "name" : "Scene",
            "nodes" : [
                0
            ]
        }
    ],
    "nodes" : [
        {
            "mesh" : 0,
            "name" : "Curve",
            "translation" : [
                -0.0028573721647262573,
                0,
                -0.0031430386006832123
            ]
        }
    ],
    "materials" : [
        {
            "doubleSided" : true,
            "name" : "SVGMat.005",
            "pbrMetallicRoughness" : {
                "metallicFactor" : 0.5,
                "roughnessFactor" : 0.4000000059604645
            }
        }
    ],
    "meshes" : [
        {
            "name" : "Curve.004",
            "primitives" : [
                {
                    "attributes" : {
                        "POSITION" : 0,
                        "NORMAL" : 1,
                        "TEXCOORD_0" : 2
                    },
                    "indices" : 3,
                    "material" : 0
                }
            ]
        }
    ],
    "accessors" : [
        {
            "bufferView" : 0,
            "componentType" : 5126,
            "count" : 4590,
            "max" : [
                0.08422955125570297,
                0,
                0.029145129024982452
            ],
            "min" : [
                -0.06432214379310608,
                0,
                -0.030628392472863197
            ],
            "type" : "VEC3"
        },
        {
            "bufferView" : 1,
            "componentType" : 5126,
            "count" : 4590,
            "type" : "VEC3"
        },
        {
            "bufferView" : 2,
            "componentType" : 5126,
            "count" : 4590,
            "type" : "VEC2"
        },
        {
            "bufferView" : 3,
            "componentType" : 5123,
            "count" : 10350,
            "type" : "SCALAR"
        }
    ],
    "bufferViews" : [
        {
            "buffer" : 0,
            "byteLength" : 55080,
            "byteOffset" : 0
        },
        {
            "buffer" : 0,
            "byteLength" : 55080,
            "byteOffset" : 55080
        },
        {
            "buffer" : 0,
            "byteLength" : 36720,
            "byteOffset" : 110160
        },
        {
            "buffer" : 0,
            "byteLength" : 20700,
            "byteOffset" : 146880
        }
    ],
    "buffers" : [
        {
            "byteLength" : 167580,
            "uri" : "data:application/octet-stream;base64,"
        }
    ]
}
