{
    "asset" : {
        "generator" : "Khronos glTF Blender I/O v1.7.33",
        "version" : "2.0"
    },
    "scene" : 0,
    "scenes" : [
        {
            "name" : "Scene",
            "nodes" : [
                0
            ]
        }
    ],
    "nodes" : [
        {
            "mesh" : 0,
            "name" : "Curve.003",
            "translation" : [
                -0.15369395911693573,
                0,
                0.17065328359603882
            ]
        }
    ],
    "materials" : [
        {
            "doubleSided" : true,
            "name" : "SVGMat.004",
            "pbrMetallicRoughness" : {
                "baseColorFactor" : [
                    0,
                    0,
                    0,
                    1
                ],
                "metallicFactor" : 0,
                "roughnessFactor" : 0.4000000059604645
            }
        },
        {
            "doubleSided" : true,
            "name" : "SVGMat.003",
            "pbrMetallicRoughness" : {
                "baseColorFactor" : [
                    1,
                    1,
                    1,
                    1
                ],
                "metallicFactor" : 0,
                "roughnessFactor" : 0.4000000059604645
            }
        }
    ],
    "meshes" : [
        {
            "name" : "Curve.003",
            "primitives" : [
                {
                    "attributes" : {
                        "POSITION" : 0,
                        "NORMAL" : 1,
                        "TEXCOORD_0" : 2
                    },
                    "indices" : 3,
                    "material" : 0
                },
                {
                    "attributes" : {
                        "POSITION" : 4,
                        "NORMAL" : 5,
                        "TEXCOORD_0" : 6
                    },
                    "indices" : 7,
                    "material" : 1
                }
            ]
        }
    ],
    "accessors" : [
        {
            "bufferView" : 0,
            "componentType" : 5126,
            "count" : 12283,
            "max" : [
                0.27893495559692383,
                0,
                -0.04768449068069458
            ],
            "min" : [
                0.02822279930114746,
                0,
                -0.30331024527549744
            ],
            "type" : "VEC3"
        },
        {
            "bufferView" : 1,
            "componentType" : 5126,
            "count" : 12283,
            "type" : "VEC3"
        },
        {
            "bufferView" : 2,
            "componentType" : 5126,
            "count" : 12283,
            "type" : "VEC2"
        },
        {
            "bufferView" : 3,
            "componentType" : 5123,
            "count" : 27663,
            "type" : "SCALAR"
        },
        {
            "bufferView" : 4,
            "componentType" : 5126,
            "count" : 13952,
            "max" : [
                0.28138214349746704,
                0,
                -0.04584013298153877
            ],
            "min" : [
                0.026606198400259018,
                0,
                -0.3046945035457611
            ],
            "type" : "VEC3"
        },
        {
            "bufferView" : 5,
            "componentType" : 5126,
            "count" : 13952,
            "type" : "VEC3"
        },
        {
            "bufferView" : 6,
            "componentType" : 5126,
            "count" : 13952,
            "type" : "VEC2"
        },
        {
            "bufferView" : 7,
            "componentType" : 5123,
            "count" : 31023,
            "type" : "SCALAR"
        }
    ],
    "bufferViews" : [
        {
            "buffer" : 0,
            "byteLength" : 147396,
            "byteOffset" : 0
        },
        {
            "buffer" : 0,
            "byteLength" : 147396,
            "byteOffset" : 147396
        },
        {
            "buffer" : 0,
            "byteLength" : 98264,
            "byteOffset" : 294792
        },
        {
            "buffer" : 0,
            "byteLength" : 55326,
            "byteOffset" : 393056
        },
        {
            "buffer" : 0,
            "byteLength" : 167424,
            "byteOffset" : 448384
        },
        {
            "buffer" : 0,
            "byteLength" : 167424,
            "byteOffset" : 615808
        },
        {
            "buffer" : 0,
            "byteLength" : 111616,
            "byteOffset" : 783232
        },
        {
            "buffer" : 0,
            "byteLength" : 62046,
            "byteOffset" : 894848
        }
    ],
    "buffers" : [
        {
            "byteLength" : 956896,
            "uri" : "data:application/octet-stream;base64,"
        }
    ]
}
