{
    "asset" : {
        "generator" : "Khronos glTF Blender I/O v1.7.33",
        "version" : "2.0"
    },
    "scene" : 0,
    "scenes" : [
        {
            "name" : "Scene",
            "nodes" : [
                0
            ]
        }
    ],
    "nodes" : [
        {
            "mesh" : 0,
            "name" : "Curve.001",
            "translation" : [
                -0.15369395911693573,
                0,
                0.17065328359603882
            ]
        }
    ],
    "materials" : [
        {
            "doubleSided" : true,
            "name" : "SVGMat.002",
            "pbrMetallicRoughness" : {
                "baseColorFactor" : [
                    0,
                    0,
                    0,
                    1
                ],
                "metallicFactor" : 0.30000001192092896,
                "roughnessFactor" : 0.4000000059604645
            }
        }
    ],
    "meshes" : [
        {
            "name" : "Curve.001",
            "primitives" : [
                {
                    "attributes" : {
                        "POSITION" : 0,
                        "NORMAL" : 1,
                        "TEXCOORD_0" : 2
                    },
                    "indices" : 3,
                    "material" : 0
                }
            ]
        }
    ],
    "accessors" : [
        {
            "bufferView" : 0,
            "componentType" : 5126,
            "count" : 5458,
            "max" : [
                0.20996874570846558,
                0.004999999888241291,
                -0.08490629494190216
            ],
            "min" : [
                0.09565355628728867,
                -0.004999999888241291,
                -0.12650762498378754
            ],
            "type" : "VEC3"
        },
        {
            "bufferView" : 1,
            "componentType" : 5126,
            "count" : 5458,
            "type" : "VEC3"
        },
        {
            "bufferView" : 2,
            "componentType" : 5126,
            "count" : 5458,
            "type" : "VEC2"
        },
        {
            "bufferView" : 3,
            "componentType" : 5123,
            "count" : 7008,
            "type" : "SCALAR"
        }
    ],
    "bufferViews" : [
        {
            "buffer" : 0,
            "byteLength" : 65496,
            "byteOffset" : 0
        },
        {
            "buffer" : 0,
            "byteLength" : 65496,
            "byteOffset" : 65496
        },
        {
            "buffer" : 0,
            "byteLength" : 43664,
            "byteOffset" : 130992
        },
        {
            "buffer" : 0,
            "byteLength" : 14016,
            "byteOffset" : 174656
        }
    ],
    "buffers" : [
        {
            "byteLength" : 188672,
            "uri" : "data:application/octet-stream;base64,"
        }
    ]
}
