{
    "asset" : {
        "generator" : "Khronos glTF Blender I/O v1.7.33",
        "version" : "2.0"
    },
    "scene" : 0,
    "scenes" : [
        {
            "name" : "Scene",
            "nodes" : [
                0
            ]
        }
    ],
    "nodes" : [
        {
            "mesh" : 0,
            "name" : "Curve",
            "translation" : [
                -0.15369395911693573,
                0,
                0.17065328359603882
            ]
        }
    ],
    "materials" : [
        {
            "doubleSided" : true,
            "name" : "SVGMat.001",
            "pbrMetallicRoughness" : {
                "baseColorFactor" : [
                    1,
                    1,
                    1,
                    1
                ],
                "metallicFactor" : 0.30000001192092896,
                "roughnessFactor" : 0.4000000059604645
            }
        }
    ],
    "meshes" : [
        {
            "name" : "Curve",
            "primitives" : [
                {
                    "attributes" : {
                        "POSITION" : 0,
                        "NORMAL" : 1,
                        "TEXCOORD_0" : 2
                    },
                    "indices" : 3,
                    "material" : 0
                }
            ]
        }
    ],
    "accessors" : [
        {
            "bufferView" : 0,
            "componentType" : 5126,
            "count" : 31875,
            "max" : [
                0.2322736382484436,
                0.004999999888241291,
                -0.017212271690368652
            ],
            "min" : [
                0.07334709912538528,
                -0.004999999888241291,
                -0.06541791558265686
            ],
            "type" : "VEC3"
        },
        {
            "bufferView" : 1,
            "componentType" : 5126,
            "count" : 31875,
            "type" : "VEC3"
        },
        {
            "bufferView" : 2,
            "componentType" : 5126,
            "count" : 31875,
            "type" : "VEC2"
        },
        {
            "bufferView" : 3,
            "componentType" : 5123,
            "count" : 40512,
            "type" : "SCALAR"
        }
    ],
    "bufferViews" : [
        {
            "buffer" : 0,
            "byteLength" : 382500,
            "byteOffset" : 0
        },
        {
            "buffer" : 0,
            "byteLength" : 382500,
            "byteOffset" : 382500
        },
        {
            "buffer" : 0,
            "byteLength" : 255000,
            "byteOffset" : 765000
        },
        {
            "buffer" : 0,
            "byteLength" : 81024,
            "byteOffset" : 1020000
        }
    ],
    "buffers" : [
        {
            "byteLength" : 1101024,
            "uri" : "data:application/octet-stream;base64,"
        }
    ]
}
