{
    "asset" : {
        "generator" : "Khronos glTF Blender I/O v1.7.33",
        "version" : "2.0"
    },
    "scene" : 0,
    "scenes" : [
        {
            "name" : "Scene",
            "nodes" : [
                0,
                1
            ]
        }
    ],
    "nodes" : [
        {
            "mesh" : 0,
            "name" : "Curve",
            "translation" : [
                -0.08921317011117935,
                0,
                0.09097976982593536
            ]
        },
        {
            "mesh" : 1,
            "name" : "Curve.001",
            "translation" : [
                -0.08921317011117935,
                0,
                0.09097976982593536
            ]
        }
    ],
    "materials" : [
        {
            "doubleSided" : true,
            "name" : "SVGMat.006",
            "pbrMetallicRoughness" : {
                "baseColorFactor" : [
                    0.4639682471752167,
                    0.4639682471752167,
                    0.4639682471752167,
                    1
                ],
                "metallicFactor" : 0,
                "roughnessFactor" : 0.4000000059604645
            }
        },
        {
            "doubleSided" : true,
            "name" : "SVGMat.007",
            "pbrMetallicRoughness" : {
                "baseColorFactor" : [
                    0.30319738388061523,
                    0.30319738388061523,
                    0.30319738388061523,
                    1
                ],
                "metallicFactor" : 0.20000000298023224,
                "roughnessFactor" : 0.4000000059604645
            }
        }
    ],
    "meshes" : [
        {
            "name" : "Curve.002",
            "primitives" : [
                {
                    "attributes" : {
                        "POSITION" : 0,
                        "NORMAL" : 1,
                        "TEXCOORD_0" : 2
                    },
                    "indices" : 3,
                    "material" : 0
                }
            ]
        },
        {
            "name" : "Curve.003",
            "primitives" : [
                {
                    "attributes" : {
                        "POSITION" : 4,
                        "NORMAL" : 5,
                        "TEXCOORD_0" : 6
                    },
                    "indices" : 7,
                    "material" : 1
                }
            ]
        }
    ],
    "accessors" : [
        {
            "bufferView" : 0,
            "componentType" : 5126,
            "count" : 1163,
            "max" : [
                0.16849011182785034,
                0,
                -0.13726823031902313
            ],
            "min" : [
                0.011431853286921978,
                0,
                -0.17710913717746735
            ],
            "type" : "VEC3"
        },
        {
            "bufferView" : 1,
            "componentType" : 5126,
            "count" : 1163,
            "type" : "VEC3"
        },
        {
            "bufferView" : 2,
            "componentType" : 5126,
            "count" : 1163,
            "type" : "VEC2"
        },
        {
            "bufferView" : 3,
            "componentType" : 5123,
            "count" : 2754,
            "type" : "SCALAR"
        },
        {
            "bufferView" : 4,
            "componentType" : 5126,
            "count" : 7058,
            "max" : [
                0.1674591451883316,
                0,
                -0.0032882492523640394
            ],
            "min" : [
                0.011979066766798496,
                0,
                -0.15421965718269348
            ],
            "type" : "VEC3"
        },
        {
            "bufferView" : 5,
            "componentType" : 5126,
            "count" : 7058,
            "type" : "VEC3"
        },
        {
            "bufferView" : 6,
            "componentType" : 5126,
            "count" : 7058,
            "type" : "VEC2"
        },
        {
            "bufferView" : 7,
            "componentType" : 5123,
            "count" : 16251,
            "type" : "SCALAR"
        }
    ],
    "bufferViews" : [
        {
            "buffer" : 0,
            "byteLength" : 13956,
            "byteOffset" : 0
        },
        {
            "buffer" : 0,
            "byteLength" : 13956,
            "byteOffset" : 13956
        },
        {
            "buffer" : 0,
            "byteLength" : 9304,
            "byteOffset" : 27912
        },
        {
            "buffer" : 0,
            "byteLength" : 5508,
            "byteOffset" : 37216
        },
        {
            "buffer" : 0,
            "byteLength" : 84696,
            "byteOffset" : 42724
        },
        {
            "buffer" : 0,
            "byteLength" : 84696,
            "byteOffset" : 127420
        },
        {
            "buffer" : 0,
            "byteLength" : 56464,
            "byteOffset" : 212116
        },
        {
            "buffer" : 0,
            "byteLength" : 32502,
            "byteOffset" : 268580
        }
    ],
    "buffers" : [
        {
            "byteLength" : 301084,
            "uri" : "data:application/octet-stream;base64,"
        }
    ]
}
