{
    "asset" : {
        "generator" : "Khronos glTF Blender I/O v1.7.33",
        "version" : "2.0"
    },
    "scene" : 0,
    "scenes" : [
        {
            "name" : "Scene",
            "nodes" : [
                0
            ]
        }
    ],
    "nodes" : [
        {
            "mesh" : 0,
            "name" : "Curve"
        }
    ],
    "materials" : [
        {
            "doubleSided" : true,
            "name" : "SVGMat.004",
            "pbrMetallicRoughness" : {
                "baseColorFactor" : [
                    0.18826553225517273,
                    0.18826553225517273,
                    0.18826553225517273,
                    1
                ],
                "metallicFactor" : 0,
                "roughnessFactor" : 0.4000000059604645
            }
        },
        {
            "doubleSided" : true,
            "name" : "SVGMat.005",
            "pbrMetallicRoughness" : {
                "baseColorFactor" : [
                    0.6266661882400513,
                    0.6266661882400513,
                    0.6266661882400513,
                    1
                ],
                "metallicFactor" : 0,
                "roughnessFactor" : 0.4000000059604645
            }
        }
    ],
    "meshes" : [
        {
            "name" : "Curve.002",
            "primitives" : [
                {
                    "attributes" : {
                        "POSITION" : 0,
                        "NORMAL" : 1,
                        "TEXCOORD_0" : 2
                    },
                    "indices" : 3,
                    "material" : 0
                },
                {
                    "attributes" : {
                        "POSITION" : 4,
                        "NORMAL" : 5,
                        "TEXCOORD_0" : 6
                    },
                    "indices" : 7,
                    "material" : 1
                }
            ]
        }
    ],
    "accessors" : [
        {
            "bufferView" : 0,
            "componentType" : 5126,
            "count" : 20253,
            "max" : [
                0.0762104019522667,
                0.005000200588256121,
                0.0904291421175003
            ],
            "min" : [
                -0.08060742914676666,
                -0.005000008270144463,
                -0.08352763205766678
            ],
            "type" : "VEC3"
        },
        {
            "bufferView" : 1,
            "componentType" : 5126,
            "count" : 20253,
            "type" : "VEC3"
        },
        {
            "bufferView" : 2,
            "componentType" : 5126,
            "count" : 20253,
            "type" : "VEC2"
        },
        {
            "bufferView" : 3,
            "componentType" : 5123,
            "count" : 20394,
            "type" : "SCALAR"
        },
        {
            "bufferView" : 4,
            "componentType" : 5126,
            "count" : 21517,
            "max" : [
                0.07611319422721863,
                0.005000023636966944,
                0.08697859197854996
            ],
            "min" : [
                -0.08068779110908508,
                -0.005005702376365662,
                -0.08352642506361008
            ],
            "type" : "VEC3"
        },
        {
            "bufferView" : 5,
            "componentType" : 5126,
            "count" : 21517,
            "type" : "VEC3"
        },
        {
            "bufferView" : 6,
            "componentType" : 5126,
            "count" : 21517,
            "type" : "VEC2"
        },
        {
            "bufferView" : 7,
            "componentType" : 5123,
            "count" : 21696,
            "type" : "SCALAR"
        }
    ],
    "bufferViews" : [
        {
            "buffer" : 0,
            "byteLength" : 243036,
            "byteOffset" : 0
        },
        {
            "buffer" : 0,
            "byteLength" : 243036,
            "byteOffset" : 243036
        },
        {
            "buffer" : 0,
            "byteLength" : 162024,
            "byteOffset" : 486072
        },
        {
            "buffer" : 0,
            "byteLength" : 40788,
            "byteOffset" : 648096
        },
        {
            "buffer" : 0,
            "byteLength" : 258204,
            "byteOffset" : 688884
        },
        {
            "buffer" : 0,
            "byteLength" : 258204,
            "byteOffset" : 947088
        },
        {
            "buffer" : 0,
            "byteLength" : 172136,
            "byteOffset" : 1205292
        },
        {
            "buffer" : 0,
            "byteLength" : 43392,
            "byteOffset" : 1377428
        }
    ],
    "buffers" : [
        {
            "byteLength" : 1420820,
            "uri" : "data:application/octet-stream;base64,"
        }
    ]
}
