{
    "asset" : {
        "generator" : "Khronos glTF Blender I/O v1.7.33",
        "version" : "2.0"
    },
    "scene" : 0,
    "scenes" : [
        {
            "name" : "Scene",
            "nodes" : [
                0
            ]
        }
    ],
    "nodes" : [
        {
            "mesh" : 0,
            "name" : "mm_frame (3).001",
            "rotation" : [
                0.01448422484099865,
                0,
                0,
                -0.9998950958251953
            ],
            "scale" : [
                0.7166256904602051,
                0.9997959733009338,
                0.7169104218482971
            ]
        }
    ],
    "materials" : [
        {
            "doubleSided" : true,
            "name" : "Material.005",
            "pbrMetallicRoughness" : {
                "baseColorTexture" : {
                    "index" : 0
                },
                "metallicFactor" : 0,
                "roughnessFactor" : 0.5
            }
        }
    ],
    "meshes" : [
        {
            "name" : "mm_frame (3).003",
            "primitives" : [
                {
                    "attributes" : {
                        "POSITION" : 0,
                        "NORMAL" : 1,
                        "TEXCOORD_0" : 2
                    },
                    "indices" : 3,
                    "material" : 0
                }
            ]
        }
    ],
    "textures" : [
        {
            "sampler" : 0,
            "source" : 0
        }
    ],
    "images" : [
        {
            "bufferView" : 4,
            "mimeType" : "image/png",
            "name" : "procesxTexture"
        }
    ],
    "accessors" : [
        {
            "bufferView" : 0,
            "componentType" : 5126,
            "count" : 10512,
            "max" : [
                3.513601779937744,
                1.9949818849563599,
                2.6350297927856445
            ],
            "min" : [
                -3.889451503753662,
                -1.9949818849563599,
                -4.698760509490967
            ],
            "type" : "VEC3"
        },
        {
            "bufferView" : 1,
            "componentType" : 5126,
            "count" : 10512,
            "type" : "VEC3"
        },
        {
            "bufferView" : 2,
            "componentType" : 5126,
            "count" : 10512,
            "type" : "VEC2"
        },
        {
            "bufferView" : 3,
            "componentType" : 5123,
            "count" : 62823,
            "type" : "SCALAR"
        }
    ],
    "bufferViews" : [
        {
            "buffer" : 0,
            "byteLength" : 126144,
            "byteOffset" : 0
        },
        {
            "buffer" : 0,
            "byteLength" : 126144,
            "byteOffset" : 126144
        },
        {
            "buffer" : 0,
            "byteLength" : 84096,
            "byteOffset" : 252288
        },
        {
            "buffer" : 0,
            "byteLength" : 125646,
            "byteOffset" : 336384
        },
        {
            "buffer" : 0,
            "byteLength" : 428767,
            "byteOffset" : 462032
        }
    ],
    "samplers" : [
        {
            "magFilter" : 9729,
            "minFilter" : 9987
        }
    ],
    "buffers" : [
        {
            "byteLength" : 890800,
            "uri" : "data:application/octet-stream;base64,"
        }
    ]
}
