{"accessors" : [{"bufferView" : 0, "byteOffset" : 0, "componentType" : 5123, "count" : 62823, "type" : "SCALAR", "max" : [62822], "min" : [0]}, {"bufferView" : 1, "byteOffset" : 0, "componentType" : 5126, "count" : 62823, "type" : "VEC3", "max" : [3.513601779937744, 4.698760509490967, 1.9949818849563599], "min" : [-3.889451503753662, -2.6350297927856445, -1.9949818849563599], "name" : "POSITION"}, {"bufferView" : 1, "byteOffset" : 12, "componentType" : 5126, "count" : 62823, "type" : "VEC3", "max" : [1.0000044107437134, 1.0000040531158447, 0.9998353123664856], "min" : [-1.0000038146972656, -1.0000040531158447, -0.9998353719711304], "name" : "NORMAL"}, {"bufferView" : 1, "byteOffset" : 24, "componentType" : 5126, "count" : 62823, "type" : "VEC2", "max" : [0.8513601422309875, 0.9543787240982056], "min" : [0.11105484515428543, 0.037654951214790344], "name" : "TEXCOORD_0"}], "asset" : {"generator" : "Aspose.3D 22.10", "version" : "2.0"}, "buffers" : [{"uri" : "data:application/octet-stream;base64,", "byteLength" : 2135992}], "bufferViews" : [{"buffer" : 0, "byteOffset" : 0, "byteLength" : 125648, "target" : 34963}, {"buffer" : 0, "byteOffset" : 125652, "byteLength" : 2010336, "byteStride" : 32, "target" : 34962}], "images" : [{"uri" : "C:\\Users\\USUARUO\\Downloads\\mm_frame (3).png"}], "materials" : [{"name" : "Material.001", "pbrMetallicRoughness" : {"baseColorFactor" : [0.800000011920929, 0.800000011920929, 0.800000011920929, 1], "baseColorTexture" : {"index" : 0, "texCoord" : 0}, "metallicFactor" : 0, "roughnessFactor" : 0}, "emissiveFactor" : [0, 0, 0], "alphaMode" : "OPAQUE", "doubleSided" : false}], "meshes" : [{"primitives" : [{"attributes" : {"POSITION" : 1, "NORMAL" : 2, "TEXCOORD_0" : 3}, "indices" : 0, "material" : 0, "mode" : 4}], "name" : "mm_frame (3).001"}], "nodes" : [{"matrix" : [100, 0, 0, 0, 0, 99.99999999999866, 1.629206707320911E-05, 0, 0, -1.629206707320911E-05, 99.99999999999866, 0, 0, 0, 0, 1], "mesh" : 0, "name" : "mm_frame (3).001"}], "samplers" : [{"magFilter" : 9729, "minFilter" : 9729, "wrapS" : 10497, "wrapT" : 10497}], "scene" : 0, "scenes" : [{"nodes" : [0]}], "textures" : [{"sampler" : 0, "source" : 0, "name" : "base_color_texture"}]}