{
    "asset" : {
        "generator" : "Khronos glTF Blender I/O v1.7.33",
        "version" : "2.0"
    },
    "scene" : 0,
    "scenes" : [
        {
            "name" : "Scene",
            "nodes" : [
                0
            ]
        }
    ],
    "nodes" : [
        {
            "mesh" : 0,
            "name" : "Curve.002",
            "scale" : [
                50,
                50,
                50
            ]
        }
    ],
    "materials" : [
        {
            "doubleSided" : true,
            "name" : "SVGMat.003",
            "pbrMetallicRoughness" : {
                "baseColorFactor" : [
                    0.7758222222328186,
                    0.5028864741325378,
                    0.1119324266910553,
                    1
                ],
                "metallicFactor" : 0,
                "roughnessFactor" : 0.4000000059604645
            }
        },
        {
            "doubleSided" : true,
            "name" : "SVGMat.001",
            "pbrMetallicRoughness" : {
                "baseColorFactor" : [
                    1,
                    1,
                    1,
                    1
                ],
                "metallicFactor" : 0,
                "roughnessFactor" : 0.4000000059604645
            }
        },
        {
            "doubleSided" : true,
            "name" : "SVGMat.002",
            "pbrMetallicRoughness" : {
                "baseColorFactor" : [
                    0.0018211619462817907,
                    0.0018211619462817907,
                    0.0015176349552348256,
                    1
                ],
                "metallicFactor" : 0,
                "roughnessFactor" : 0.4000000059604645
            }
        }
    ],
    "meshes" : [
        {
            "name" : "Curve.002",
            "primitives" : [
                {
                    "attributes" : {
                        "POSITION" : 0,
                        "NORMAL" : 1,
                        "TEXCOORD_0" : 2
                    },
                    "indices" : 3,
                    "material" : 0
                },
                {
                    "attributes" : {
                        "POSITION" : 4,
                        "NORMAL" : 5,
                        "TEXCOORD_0" : 6
                    },
                    "indices" : 7,
                    "material" : 1
                },
                {
                    "attributes" : {
                        "POSITION" : 8,
                        "NORMAL" : 9,
                        "TEXCOORD_0" : 10
                    },
                    "indices" : 11,
                    "material" : 2
                }
            ]
        }
    ],
    "accessors" : [
        {
            "bufferView" : 0,
            "componentType" : 5126,
            "count" : 2805,
            "max" : [
                0.009432780556380749,
                0,
                0.0122789666056633
            ],
            "min" : [
                -0.01029634103178978,
                0,
                -0.01368895173072815
            ],
            "type" : "VEC3"
        },
        {
            "bufferView" : 1,
            "componentType" : 5126,
            "count" : 2805,
            "type" : "VEC3"
        },
        {
            "bufferView" : 2,
            "componentType" : 5126,
            "count" : 2805,
            "type" : "VEC2"
        },
        {
            "bufferView" : 3,
            "componentType" : 5123,
            "count" : 6261,
            "type" : "SCALAR"
        },
        {
            "bufferView" : 4,
            "componentType" : 5126,
            "count" : 142,
            "max" : [
                0.005851401947438717,
                0,
                0.001207856461405754
            ],
            "min" : [
                -0.005499336868524551,
                0,
                -0.0009829476475715637
            ],
            "type" : "VEC3"
        },
        {
            "bufferView" : 5,
            "componentType" : 5126,
            "count" : 142,
            "type" : "VEC3"
        },
        {
            "bufferView" : 6,
            "componentType" : 5126,
            "count" : 142,
            "type" : "VEC2"
        },
        {
            "bufferView" : 7,
            "componentType" : 5123,
            "count" : 312,
            "type" : "SCALAR"
        },
        {
            "bufferView" : 8,
            "componentType" : 5126,
            "count" : 2187,
            "max" : [
                0.00788221973925829,
                0,
                0.007199935615062714
            ],
            "min" : [
                -0.008623884059488773,
                0,
                -0.013675833120942116
            ],
            "type" : "VEC3"
        },
        {
            "bufferView" : 9,
            "componentType" : 5126,
            "count" : 2187,
            "type" : "VEC3"
        },
        {
            "bufferView" : 10,
            "componentType" : 5126,
            "count" : 2187,
            "type" : "VEC2"
        },
        {
            "bufferView" : 11,
            "componentType" : 5123,
            "count" : 4740,
            "type" : "SCALAR"
        }
    ],
    "bufferViews" : [
        {
            "buffer" : 0,
            "byteLength" : 33660,
            "byteOffset" : 0
        },
        {
            "buffer" : 0,
            "byteLength" : 33660,
            "byteOffset" : 33660
        },
        {
            "buffer" : 0,
            "byteLength" : 22440,
            "byteOffset" : 67320
        },
        {
            "buffer" : 0,
            "byteLength" : 12522,
            "byteOffset" : 89760
        },
        {
            "buffer" : 0,
            "byteLength" : 1704,
            "byteOffset" : 102284
        },
        {
            "buffer" : 0,
            "byteLength" : 1704,
            "byteOffset" : 103988
        },
        {
            "buffer" : 0,
            "byteLength" : 1136,
            "byteOffset" : 105692
        },
        {
            "buffer" : 0,
            "byteLength" : 624,
            "byteOffset" : 106828
        },
        {
            "buffer" : 0,
            "byteLength" : 26244,
            "byteOffset" : 107452
        },
        {
            "buffer" : 0,
            "byteLength" : 26244,
            "byteOffset" : 133696
        },
        {
            "buffer" : 0,
            "byteLength" : 17496,
            "byteOffset" : 159940
        },
        {
            "buffer" : 0,
            "byteLength" : 9480,
            "byteOffset" : 177436
        }
    ],
    "buffers" : [
        {
            "byteLength" : 186916,
            "uri" : "data:application/octet-stream;base64,"
        }
    ]
}
