{
    "asset" : {
        "generator" : "Khronos glTF Blender I/O v1.7.33",
        "version" : "2.0"
    },
    "scene" : 0,
    "scenes" : [
        {
            "name" : "Scene",
            "nodes" : [
                0
            ]
        }
    ],
    "nodes" : [
        {
            "mesh" : 0,
            "name" : "Curve"
        }
    ],
    "materials" : [
        {
            "doubleSided" : true,
            "name" : "SVGMat.001",
            "pbrMetallicRoughness" : {
                "baseColorFactor" : [
                    1,
                    1,
                    1,
                    1
                ],
                "metallicFactor" : 0,
                "roughnessFactor" : 0.4000000059604645
            }
        },
        {
            "doubleSided" : true,
            "name" : "SVGMat.002",
            "pbrMetallicRoughness" : {
                "baseColorFactor" : [
                    0,
                    0,
                    0,
                    1
                ],
                "metallicFactor" : 0,
                "roughnessFactor" : 0.4000000059604645
            }
        }
    ],
    "meshes" : [
        {
            "name" : "Curve",
            "primitives" : [
                {
                    "attributes" : {
                        "POSITION" : 0,
                        "NORMAL" : 1,
                        "TEXCOORD_0" : 2
                    },
                    "indices" : 3,
                    "material" : 0
                },
                {
                    "attributes" : {
                        "POSITION" : 4,
                        "NORMAL" : 5,
                        "TEXCOORD_0" : 6
                    },
                    "indices" : 7,
                    "material" : 1
                }
            ]
        }
    ],
    "accessors" : [
        {
            "bufferView" : 0,
            "componentType" : 5126,
            "count" : 6455,
            "max" : [
                0.038638971745967865,
                0,
                0.04078226163983345
            ],
            "min" : [
                -0.04351381957530975,
                0,
                0.01513619627803564
            ],
            "type" : "VEC3"
        },
        {
            "bufferView" : 1,
            "componentType" : 5126,
            "count" : 6455,
            "type" : "VEC3"
        },
        {
            "bufferView" : 2,
            "componentType" : 5126,
            "count" : 6455,
            "type" : "VEC2"
        },
        {
            "bufferView" : 3,
            "componentType" : 5123,
            "count" : 14325,
            "type" : "SCALAR"
        },
        {
            "bufferView" : 4,
            "componentType" : 5126,
            "count" : 5963,
            "max" : [
                0.04184136539697647,
                0,
                0.04277847707271576
            ],
            "min" : [
                -0.04437590390443802,
                0,
                -0.043150607496500015
            ],
            "type" : "VEC3"
        },
        {
            "bufferView" : 5,
            "componentType" : 5126,
            "count" : 5963,
            "type" : "VEC3"
        },
        {
            "bufferView" : 6,
            "componentType" : 5126,
            "count" : 5963,
            "type" : "VEC2"
        },
        {
            "bufferView" : 7,
            "componentType" : 5123,
            "count" : 13791,
            "type" : "SCALAR"
        }
    ],
    "bufferViews" : [
        {
            "buffer" : 0,
            "byteLength" : 77460,
            "byteOffset" : 0
        },
        {
            "buffer" : 0,
            "byteLength" : 77460,
            "byteOffset" : 77460
        },
        {
            "buffer" : 0,
            "byteLength" : 51640,
            "byteOffset" : 154920
        },
        {
            "buffer" : 0,
            "byteLength" : 28650,
            "byteOffset" : 206560
        },
        {
            "buffer" : 0,
            "byteLength" : 71556,
            "byteOffset" : 235212
        },
        {
            "buffer" : 0,
            "byteLength" : 71556,
            "byteOffset" : 306768
        },
        {
            "buffer" : 0,
            "byteLength" : 47704,
            "byteOffset" : 378324
        },
        {
            "buffer" : 0,
            "byteLength" : 27582,
            "byteOffset" : 426028
        }
    ],
    "buffers" : [
        {
            "byteLength" : 453612,
            "uri" : "data:application/octet-stream;base64,"
        }
    ]
}
