{
    "asset" : {
        "generator" : "Khronos glTF Blender I/O v1.7.33",
        "version" : "2.0"
    },
    "scene" : 0,
    "scenes" : [
        {
            "name" : "Scene",
            "nodes" : [
                0
            ]
        }
    ],
    "nodes" : [
        {
            "mesh" : 0,
            "name" : "Curve",
            "translation" : [
                -0.242171049118042,
                0,
                0.05078966170549393
            ]
        }
    ],
    "materials" : [
        {
            "doubleSided" : true,
            "name" : "SVGMat.001",
            "pbrMetallicRoughness" : {
                "baseColorFactor" : [
                    1,
                    1,
                    1,
                    1
                ],
                "metallicFactor" : 0.5,
                "roughnessFactor" : 0.4000000059604645
            }
        },
        {
            "doubleSided" : true,
            "name" : "SVGMat.002",
            "pbrMetallicRoughness" : {
                "baseColorFactor" : [
                    0.838798999786377,
                    0.03433980792760849,
                    0.045186202973127365,
                    1
                ],
                "metallicFactor" : 0,
                "roughnessFactor" : 0.4000000059604645
            }
        }
    ],
    "meshes" : [
        {
            "name" : "Curve",
            "primitives" : [
                {
                    "attributes" : {
                        "POSITION" : 0,
                        "NORMAL" : 1,
                        "TEXCOORD_0" : 2
                    },
                    "indices" : 3,
                    "material" : 0
                },
                {
                    "attributes" : {
                        "POSITION" : 4,
                        "NORMAL" : 5,
                        "TEXCOORD_0" : 6
                    },
                    "indices" : 7,
                    "material" : 1
                }
            ]
        }
    ],
    "accessors" : [
        {
            "bufferView" : 0,
            "componentType" : 5126,
            "count" : 7169,
            "max" : [
                0.39256250858306885,
                0,
                -0.015539474785327911
            ],
            "min" : [
                0.02884426712989807,
                -0.020000388845801353,
                -0.11116635799407959
            ],
            "type" : "VEC3"
        },
        {
            "bufferView" : 1,
            "componentType" : 5126,
            "count" : 7169,
            "type" : "VEC3"
        },
        {
            "bufferView" : 2,
            "componentType" : 5126,
            "count" : 7169,
            "type" : "VEC2"
        },
        {
            "bufferView" : 3,
            "componentType" : 5123,
            "count" : 8472,
            "type" : "SCALAR"
        },
        {
            "bufferView" : 4,
            "componentType" : 5126,
            "count" : 20467,
            "max" : [
                0.4199512004852295,
                4.480508888234894e-16,
                -0.019751787185668945
            ],
            "min" : [
                0.10490275919437408,
                -0.020000455901026726,
                -0.1009732112288475
            ],
            "type" : "VEC3"
        },
        {
            "bufferView" : 5,
            "componentType" : 5126,
            "count" : 20467,
            "type" : "VEC3"
        },
        {
            "bufferView" : 6,
            "componentType" : 5126,
            "count" : 20467,
            "type" : "VEC2"
        },
        {
            "bufferView" : 7,
            "componentType" : 5123,
            "count" : 24318,
            "type" : "SCALAR"
        }
    ],
    "bufferViews" : [
        {
            "buffer" : 0,
            "byteLength" : 86028,
            "byteOffset" : 0
        },
        {
            "buffer" : 0,
            "byteLength" : 86028,
            "byteOffset" : 86028
        },
        {
            "buffer" : 0,
            "byteLength" : 57352,
            "byteOffset" : 172056
        },
        {
            "buffer" : 0,
            "byteLength" : 16944,
            "byteOffset" : 229408
        },
        {
            "buffer" : 0,
            "byteLength" : 245604,
            "byteOffset" : 246352
        },
        {
            "buffer" : 0,
            "byteLength" : 245604,
            "byteOffset" : 491956
        },
        {
            "buffer" : 0,
            "byteLength" : 163736,
            "byteOffset" : 737560
        },
        {
            "buffer" : 0,
            "byteLength" : 48636,
            "byteOffset" : 901296
        }
    ],
    "buffers" : [
        {
            "byteLength" : 949932,
            "uri" : "data:application/octet-stream;base64,"
        }
    ]
}
