{
    "asset" : {
        "generator" : "Khronos glTF Blender I/O v1.7.33",
        "version" : "2.0"
    },
    "scene" : 0,
    "scenes" : [
        {
            "name" : "Scene",
            "nodes" : [
                0
            ]
        }
    ],
    "nodes" : [
        {
            "mesh" : 0,
            "name" : "Curve",
            "translation" : [
                -0.10495580732822418,
                0,
                0.10218065977096558
            ]
        }
    ],
    "materials" : [
        {
            "doubleSided" : true,
            "name" : "SVGMat.006",
            "pbrMetallicRoughness" : {
                "baseColorFactor" : [
                    1,
                    1,
                    1,
                    1
                ],
                "metallicFactor" : 0,
                "roughnessFactor" : 0.4000000059604645
            }
        },
        {
            "doubleSided" : true,
            "name" : "SVGMat.008",
            "pbrMetallicRoughness" : {
                "baseColorFactor" : [
                    0,
                    0,
                    0,
                    1
                ],
                "metallicFactor" : 0,
                "roughnessFactor" : 0.4000000059604645
            }
        }
    ],
    "meshes" : [
        {
            "name" : "Curve.004",
            "primitives" : [
                {
                    "attributes" : {
                        "POSITION" : 0,
                        "NORMAL" : 1,
                        "TEXCOORD_0" : 2
                    },
                    "indices" : 3,
                    "material" : 0
                },
                {
                    "attributes" : {
                        "POSITION" : 4,
                        "NORMAL" : 5,
                        "TEXCOORD_0" : 6
                    },
                    "indices" : 7,
                    "material" : 1
                }
            ]
        }
    ],
    "accessors" : [
        {
            "bufferView" : 0,
            "componentType" : 5126,
            "count" : 4773,
            "max" : [
                0.18424482643604279,
                0,
                -0.03477761894464493
            ],
            "min" : [
                0.030151546001434326,
                0,
                -0.19325479865074158
            ],
            "type" : "VEC3"
        },
        {
            "bufferView" : 1,
            "componentType" : 5126,
            "count" : 4773,
            "type" : "VEC3"
        },
        {
            "bufferView" : 2,
            "componentType" : 5126,
            "count" : 4773,
            "type" : "VEC2"
        },
        {
            "bufferView" : 3,
            "componentType" : 5123,
            "count" : 10527,
            "type" : "SCALAR"
        },
        {
            "bufferView" : 4,
            "componentType" : 5126,
            "count" : 26874,
            "max" : [
                0.1875399500131607,
                0,
                -0.009977370500564575
            ],
            "min" : [
                0.028300588950514793,
                0,
                -0.20311769843101501
            ],
            "type" : "VEC3"
        },
        {
            "bufferView" : 5,
            "componentType" : 5126,
            "count" : 26874,
            "type" : "VEC3"
        },
        {
            "bufferView" : 6,
            "componentType" : 5126,
            "count" : 26874,
            "type" : "VEC2"
        },
        {
            "bufferView" : 7,
            "componentType" : 5123,
            "count" : 61047,
            "type" : "SCALAR"
        }
    ],
    "bufferViews" : [
        {
            "buffer" : 0,
            "byteLength" : 57276,
            "byteOffset" : 0
        },
        {
            "buffer" : 0,
            "byteLength" : 57276,
            "byteOffset" : 57276
        },
        {
            "buffer" : 0,
            "byteLength" : 38184,
            "byteOffset" : 114552
        },
        {
            "buffer" : 0,
            "byteLength" : 21054,
            "byteOffset" : 152736
        },
        {
            "buffer" : 0,
            "byteLength" : 322488,
            "byteOffset" : 173792
        },
        {
            "buffer" : 0,
            "byteLength" : 322488,
            "byteOffset" : 496280
        },
        {
            "buffer" : 0,
            "byteLength" : 214992,
            "byteOffset" : 818768
        },
        {
            "buffer" : 0,
            "byteLength" : 122094,
            "byteOffset" : 1033760
        }
    ],
    "buffers" : [
        {
            "byteLength" : 1155856,
            "uri" : "data:application/octet-stream;base64,"
        }
    ]
}
