{
    "asset" : {
        "generator" : "Khronos glTF Blender I/O v1.7.33",
        "version" : "2.0"
    },
    "scene" : 0,
    "scenes" : [
        {
            "name" : "Scene",
            "nodes" : [
                0
            ]
        }
    ],
    "nodes" : [
        {
            "mesh" : 0,
            "name" : "Curve.001",
            "translation" : [
                -0.10495580732822418,
                0,
                0.10218065977096558
            ]
        }
    ],
    "materials" : [
        {
            "doubleSided" : true,
            "name" : "SVGMat.007",
            "pbrMetallicRoughness" : {
                "baseColorFactor" : [
                    1,
                    1,
                    1,
                    1
                ],
                "metallicFactor" : 0.20000000298023224,
                "roughnessFactor" : 0.4000000059604645
            }
        }
    ],
    "meshes" : [
        {
            "name" : "Curve.005",
            "primitives" : [
                {
                    "attributes" : {
                        "POSITION" : 0,
                        "NORMAL" : 1,
                        "TEXCOORD_0" : 2
                    },
                    "indices" : 3,
                    "material" : 0
                }
            ]
        }
    ],
    "accessors" : [
        {
            "bufferView" : 0,
            "componentType" : 5126,
            "count" : 12340,
            "max" : [
                0.17074793577194214,
                0,
                -0.011662060394883156
            ],
            "min" : [
                0.03637658804655075,
                0,
                -0.20147432386875153
            ],
            "type" : "VEC3"
        },
        {
            "bufferView" : 1,
            "componentType" : 5126,
            "count" : 12340,
            "type" : "VEC3"
        },
        {
            "bufferView" : 2,
            "componentType" : 5126,
            "count" : 12340,
            "type" : "VEC2"
        },
        {
            "bufferView" : 3,
            "componentType" : 5123,
            "count" : 27603,
            "type" : "SCALAR"
        }
    ],
    "bufferViews" : [
        {
            "buffer" : 0,
            "byteLength" : 148080,
            "byteOffset" : 0
        },
        {
            "buffer" : 0,
            "byteLength" : 148080,
            "byteOffset" : 148080
        },
        {
            "buffer" : 0,
            "byteLength" : 98720,
            "byteOffset" : 296160
        },
        {
            "buffer" : 0,
            "byteLength" : 55206,
            "byteOffset" : 394880
        }
    ],
    "buffers" : [
        {
            "byteLength" : 450088,
            "uri" : "data:application/octet-stream;base64,"
        }
    ]
}
