{
    "asset" : {
        "generator" : "Khronos glTF Blender I/O v1.7.33",
        "version" : "2.0"
    },
    "scene" : 0,
    "scenes" : [
        {
            "name" : "Scene",
            "nodes" : [
                0
            ]
        }
    ],
    "nodes" : [
        {
            "mesh" : 0,
            "name" : "Curve.003",
            "translation" : [
                -0.10495580732822418,
                0,
                0.10218065977096558
            ]
        }
    ],
    "materials" : [
        {
            "doubleSided" : true,
            "name" : "SVGMat.009",
            "pbrMetallicRoughness" : {
                "baseColorFactor" : [
                    1,
                    1,
                    1,
                    1
                ],
                "metallicFactor" : 0.4000000059604645,
                "roughnessFactor" : 0.4000000059604645
            }
        }
    ],
    "meshes" : [
        {
            "name" : "Curve.007",
            "primitives" : [
                {
                    "attributes" : {
                        "POSITION" : 0,
                        "NORMAL" : 1,
                        "TEXCOORD_0" : 2
                    },
                    "indices" : 3,
                    "material" : 0
                }
            ]
        }
    ],
    "accessors" : [
        {
            "bufferView" : 0,
            "componentType" : 5126,
            "count" : 7418,
            "max" : [
                0.17892028391361237,
                0,
                -0.03727924823760986
            ],
            "min" : [
                0.0351577028632164,
                0,
                -0.1659943163394928
            ],
            "type" : "VEC3"
        },
        {
            "bufferView" : 1,
            "componentType" : 5126,
            "count" : 7418,
            "type" : "VEC3"
        },
        {
            "bufferView" : 2,
            "componentType" : 5126,
            "count" : 7418,
            "type" : "VEC2"
        },
        {
            "bufferView" : 3,
            "componentType" : 5123,
            "count" : 16833,
            "type" : "SCALAR"
        }
    ],
    "bufferViews" : [
        {
            "buffer" : 0,
            "byteLength" : 89016,
            "byteOffset" : 0
        },
        {
            "buffer" : 0,
            "byteLength" : 89016,
            "byteOffset" : 89016
        },
        {
            "buffer" : 0,
            "byteLength" : 59344,
            "byteOffset" : 178032
        },
        {
            "buffer" : 0,
            "byteLength" : 33666,
            "byteOffset" : 237376
        }
    ],
    "buffers" : [
        {
            "byteLength" : 271044,
            "uri" : "data:application/octet-stream;base64,"
        }
    ]
}
