{
    "asset" : {
        "generator" : "Khronos glTF Blender I/O v1.7.33",
        "version" : "2.0"
    },
    "scene" : 0,
    "scenes" : [
        {
            "name" : "Scene",
            "nodes" : [
                0
            ]
        }
    ],
    "nodes" : [
        {
            "mesh" : 0,
            "name" : "Curve.001"
        }
    ],
    "materials" : [
        {
            "doubleSided" : true,
            "name" : "SVGMat.865",
            "pbrMetallicRoughness" : {
                "baseColorFactor" : [
                    1,
                    1,
                    1,
                    1
                ],
                "metallicFactor" : 0,
                "roughnessFactor" : 0.4000000059604645
            }
        },
        {
            "doubleSided" : true,
            "name" : "SVGMat.864",
            "pbrMetallicRoughness" : {
                "baseColorFactor" : [
                    0,
                    0,
                    0,
                    1
                ],
                "metallicFactor" : 0,
                "roughnessFactor" : 0.4000000059604645
            }
        }
    ],
    "meshes" : [
        {
            "name" : "Curve.856",
            "primitives" : [
                {
                    "attributes" : {
                        "POSITION" : 0,
                        "NORMAL" : 1,
                        "TEXCOORD_0" : 2
                    },
                    "indices" : 3,
                    "material" : 0
                },
                {
                    "attributes" : {
                        "POSITION" : 4,
                        "NORMAL" : 5,
                        "TEXCOORD_0" : 6
                    },
                    "indices" : 7,
                    "material" : 1
                }
            ]
        }
    ],
    "accessors" : [
        {
            "bufferView" : 0,
            "componentType" : 5126,
            "count" : 14588,
            "max" : [
                0.08466482162475586,
                0.004999999888241291,
                0.09653206169605255
            ],
            "min" : [
                -0.08682550489902496,
                -0.004999999888241291,
                -0.08425448089838028
            ],
            "type" : "VEC3"
        },
        {
            "bufferView" : 1,
            "componentType" : 5126,
            "count" : 14588,
            "type" : "VEC3"
        },
        {
            "bufferView" : 2,
            "componentType" : 5126,
            "count" : 14588,
            "type" : "VEC2"
        },
        {
            "bufferView" : 3,
            "componentType" : 5123,
            "count" : 19140,
            "type" : "SCALAR"
        },
        {
            "bufferView" : 4,
            "componentType" : 5126,
            "count" : 21147,
            "max" : [
                0.09872670471668243,
                0.004999999888241291,
                0.10567120462656021
            ],
            "min" : [
                -0.1005774438381195,
                -0.004999999888241291,
                -0.09363459050655365
            ],
            "type" : "VEC3"
        },
        {
            "bufferView" : 5,
            "componentType" : 5126,
            "count" : 21147,
            "type" : "VEC3"
        },
        {
            "bufferView" : 6,
            "componentType" : 5126,
            "count" : 21147,
            "type" : "VEC2"
        },
        {
            "bufferView" : 7,
            "componentType" : 5123,
            "count" : 26928,
            "type" : "SCALAR"
        }
    ],
    "bufferViews" : [
        {
            "buffer" : 0,
            "byteLength" : 175056,
            "byteOffset" : 0
        },
        {
            "buffer" : 0,
            "byteLength" : 175056,
            "byteOffset" : 175056
        },
        {
            "buffer" : 0,
            "byteLength" : 116704,
            "byteOffset" : 350112
        },
        {
            "buffer" : 0,
            "byteLength" : 38280,
            "byteOffset" : 466816
        },
        {
            "buffer" : 0,
            "byteLength" : 253764,
            "byteOffset" : 505096
        },
        {
            "buffer" : 0,
            "byteLength" : 253764,
            "byteOffset" : 758860
        },
        {
            "buffer" : 0,
            "byteLength" : 169176,
            "byteOffset" : 1012624
        },
        {
            "buffer" : 0,
            "byteLength" : 53856,
            "byteOffset" : 1181800
        }
    ],
    "buffers" : [
        {
            "byteLength" : 1235656,
            "uri" : "data:application/octet-stream;base64,"
        }
    ]
}
