{
    "asset" : {
        "generator" : "Khronos glTF Blender I/O v1.7.33",
        "version" : "2.0"
    },
    "scene" : 0,
    "scenes" : [
        {
            "name" : "Scene",
            "nodes" : [
                0
            ]
        }
    ],
    "nodes" : [
        {
            "mesh" : 0,
            "name" : "Curve.003"
        }
    ],
    "materials" : [
        {
            "doubleSided" : true,
            "name" : "SVGMat.008",
            "pbrMetallicRoughness" : {
                "baseColorFactor" : [
                    0,
                    0,
                    0,
                    1
                ],
                "metallicFactor" : 0.20000000298023224,
                "roughnessFactor" : 0.4000000059604645
            }
        },
        {
            "doubleSided" : true,
            "name" : "SVGMat.005",
            "pbrMetallicRoughness" : {
                "baseColorFactor" : [
                    1,
                    1,
                    1,
                    1
                ],
                "metallicFactor" : 0,
                "roughnessFactor" : 0.4000000059604645
            }
        }
    ],
    "meshes" : [
        {
            "name" : "Curve.006",
            "primitives" : [
                {
                    "attributes" : {
                        "POSITION" : 0,
                        "NORMAL" : 1,
                        "TEXCOORD_0" : 2
                    },
                    "indices" : 3,
                    "material" : 0
                },
                {
                    "attributes" : {
                        "POSITION" : 4,
                        "NORMAL" : 5,
                        "TEXCOORD_0" : 6
                    },
                    "indices" : 7,
                    "material" : 1
                }
            ]
        }
    ],
    "accessors" : [
        {
            "bufferView" : 0,
            "componentType" : 5126,
            "count" : 44355,
            "max" : [
                0.2636658549308777,
                0,
                0.24454252421855927
            ],
            "min" : [
                -0.26203471422195435,
                0,
                -0.23003192245960236
            ],
            "type" : "VEC3"
        },
        {
            "bufferView" : 1,
            "componentType" : 5126,
            "count" : 44355,
            "type" : "VEC3"
        },
        {
            "bufferView" : 2,
            "componentType" : 5126,
            "count" : 44355,
            "type" : "VEC2"
        },
        {
            "bufferView" : 3,
            "componentType" : 5123,
            "count" : 99447,
            "type" : "SCALAR"
        },
        {
            "bufferView" : 4,
            "componentType" : 5126,
            "count" : 41152,
            "max" : [
                0.2634108364582062,
                0,
                0.16917181015014648
            ],
            "min" : [
                -0.26172640919685364,
                0,
                -0.23008430004119873
            ],
            "type" : "VEC3"
        },
        {
            "bufferView" : 5,
            "componentType" : 5126,
            "count" : 41152,
            "type" : "VEC3"
        },
        {
            "bufferView" : 6,
            "componentType" : 5126,
            "count" : 41152,
            "type" : "VEC2"
        },
        {
            "bufferView" : 7,
            "componentType" : 5123,
            "count" : 92661,
            "type" : "SCALAR"
        }
    ],
    "bufferViews" : [
        {
            "buffer" : 0,
            "byteLength" : 532260,
            "byteOffset" : 0
        },
        {
            "buffer" : 0,
            "byteLength" : 532260,
            "byteOffset" : 532260
        },
        {
            "buffer" : 0,
            "byteLength" : 354840,
            "byteOffset" : 1064520
        },
        {
            "buffer" : 0,
            "byteLength" : 198894,
            "byteOffset" : 1419360
        },
        {
            "buffer" : 0,
            "byteLength" : 493824,
            "byteOffset" : 1618256
        },
        {
            "buffer" : 0,
            "byteLength" : 493824,
            "byteOffset" : 2112080
        },
        {
            "buffer" : 0,
            "byteLength" : 329216,
            "byteOffset" : 2605904
        },
        {
            "buffer" : 0,
            "byteLength" : 185322,
            "byteOffset" : 2935120
        }
    ],
    "buffers" : [
        {
            "byteLength" : 3120444,
            "uri" : "data:application/octet-stream;base64,"
        }
    ]
}
