{
    "asset" : {
        "generator" : "Khronos glTF Blender I/O v1.7.33",
        "version" : "2.0"
    },
    "scene" : 0,
    "scenes" : [
        {
            "name" : "Scene",
            "nodes" : [
                0
            ]
        }
    ],
    "nodes" : [
        {
            "mesh" : 0,
            "name" : "Curve",
            "scale" : [
                0.5,
                0.5,
                0.5
            ]
        }
    ],
    "materials" : [
        {
            "doubleSided" : true,
            "name" : "SVGMat.001",
            "pbrMetallicRoughness" : {
                "baseColorFactor" : [
                    1,
                    1,
                    1,
                    1
                ],
                "metallicFactor" : 0.5,
                "roughnessFactor" : 0.4000000059604645
            }
        }
    ],
    "meshes" : [
        {
            "name" : "Curve",
            "primitives" : [
                {
                    "attributes" : {
                        "POSITION" : 0,
                        "NORMAL" : 1,
                        "TEXCOORD_0" : 2
                    },
                    "indices" : 3,
                    "material" : 0
                }
            ]
        }
    ],
    "accessors" : [
        {
            "bufferView" : 0,
            "componentType" : 5126,
            "count" : 80362,
            "max" : [
                0.11980310082435608,
                0.0050003305077552795,
                0.11190712451934814
            ],
            "min" : [
                -0.10872722417116165,
                -0.005000426433980465,
                -0.1373889148235321
            ],
            "type" : "VEC3"
        },
        {
            "bufferView" : 1,
            "componentType" : 5126,
            "count" : 80362,
            "type" : "VEC3"
        },
        {
            "bufferView" : 2,
            "componentType" : 5126,
            "count" : 80362,
            "type" : "VEC2"
        },
        {
            "bufferView" : 3,
            "componentType" : 5125,
            "count" : 82410,
            "type" : "SCALAR"
        }
    ],
    "bufferViews" : [
        {
            "buffer" : 0,
            "byteLength" : 964344,
            "byteOffset" : 0
        },
        {
            "buffer" : 0,
            "byteLength" : 964344,
            "byteOffset" : 964344
        },
        {
            "buffer" : 0,
            "byteLength" : 642896,
            "byteOffset" : 1928688
        },
        {
            "buffer" : 0,
            "byteLength" : 329640,
            "byteOffset" : 2571584
        }
    ],
    "buffers" : [
        {
            "byteLength" : 2901224,
            "uri" : "data:application/octet-stream;base64,"
        }
    ]
}
