{
    "asset" : {
        "generator" : "Khronos glTF Blender I/O v1.7.33",
        "version" : "2.0"
    },
    "scene" : 0,
    "scenes" : [
        {
            "name" : "Scene",
            "nodes" : [
                0
            ]
        }
    ],
    "nodes" : [
        {
            "mesh" : 0,
            "name" : "imagetostl_mesh",
            "scale" : [
                0.08771027624607086,
                1,
                0.08771027624607086
            ]
        }
    ],
    "materials" : [
        {
            "doubleSided" : true,
            "name" : "Material.008",
            "pbrMetallicRoughness" : {
                "baseColorFactor" : [
                    0.40112540125846863,
                    0,
                    0.8000000715255737,
                    1
                ],
                "metallicFactor" : 0.5,
                "roughnessFactor" : 0.5
            }
        }
    ],
    "meshes" : [
        {
            "name" : "imagetostl_mesh.005",
            "primitives" : [
                {
                    "attributes" : {
                        "POSITION" : 0,
                        "NORMAL" : 1
                    },
                    "indices" : 2,
                    "material" : 0
                }
            ]
        }
    ],
    "accessors" : [
        {
            "bufferView" : 0,
            "componentType" : 5126,
            "count" : 17073,
            "max" : [
                48.65168762207031,
                6,
                48.88787078857422
            ],
            "min" : [
                -47.9775276184082,
                6,
                -49.560638427734375
            ],
            "type" : "VEC3"
        },
        {
            "bufferView" : 1,
            "componentType" : 5126,
            "count" : 17073,
            "type" : "VEC3"
        },
        {
            "bufferView" : 2,
            "componentType" : 5123,
            "count" : 86586,
            "type" : "SCALAR"
        }
    ],
    "bufferViews" : [
        {
            "buffer" : 0,
            "byteLength" : 204876,
            "byteOffset" : 0
        },
        {
            "buffer" : 0,
            "byteLength" : 204876,
            "byteOffset" : 204876
        },
        {
            "buffer" : 0,
            "byteLength" : 173172,
            "byteOffset" : 409752
        }
    ],
    "buffers" : [
        {
            "byteLength" : 582924,
            "uri" : "data:application/octet-stream;base64,"
        }
    ]
}
