{
    "asset" : {
        "generator" : "Khronos glTF Blender I/O v1.7.33",
        "version" : "2.0"
    },
    "scene" : 0,
    "scenes" : [
        {
            "name" : "Scene",
            "nodes" : [
                0
            ]
        }
    ],
    "nodes" : [
        {
            "mesh" : 0,
            "name" : "Curve",
            "translation" : [
                -0.05435260385274887,
                0,
                0.05657326057553291
            ]
        }
    ],
    "materials" : [
        {
            "doubleSided" : true,
            "name" : "SVGMat.001",
            "pbrMetallicRoughness" : {
                "baseColorFactor" : [
                    0.9734452962875366,
                    0.9911020994186401,
                    1,
                    1
                ],
                "metallicFactor" : 0,
                "roughnessFactor" : 0.4000000059604645
            }
        },
        {
            "doubleSided" : true,
            "name" : "SVGMat.003",
            "pbrMetallicRoughness" : {
                "baseColorFactor" : [
                    0.021219009533524513,
                    0.021219009533524513,
                    0.021219009533524513,
                    1
                ],
                "metallicFactor" : 0,
                "roughnessFactor" : 0.4000000059604645
            }
        }
    ],
    "meshes" : [
        {
            "name" : "Curve",
            "primitives" : [
                {
                    "attributes" : {
                        "POSITION" : 0,
                        "NORMAL" : 1,
                        "TEXCOORD_0" : 2
                    },
                    "indices" : 3,
                    "material" : 0
                },
                {
                    "attributes" : {
                        "POSITION" : 4,
                        "NORMAL" : 5,
                        "TEXCOORD_0" : 6
                    },
                    "indices" : 7,
                    "material" : 1
                }
            ]
        }
    ],
    "accessors" : [
        {
            "bufferView" : 0,
            "componentType" : 5126,
            "count" : 6261,
            "max" : [
                0.09079665690660477,
                0.004999999888241291,
                -0.021577486768364906
            ],
            "min" : [
                0.021324582397937775,
                -0.004999999888241291,
                -0.0908207893371582
            ],
            "type" : "VEC3"
        },
        {
            "bufferView" : 1,
            "componentType" : 5126,
            "count" : 6261,
            "type" : "VEC3"
        },
        {
            "bufferView" : 2,
            "componentType" : 5126,
            "count" : 6261,
            "type" : "VEC2"
        },
        {
            "bufferView" : 3,
            "componentType" : 5123,
            "count" : 8136,
            "type" : "SCALAR"
        },
        {
            "bufferView" : 4,
            "componentType" : 5126,
            "count" : 7211,
            "max" : [
                0.09470222890377045,
                0.004999999888241291,
                -0.017646178603172302
            ],
            "min" : [
                0.017355751246213913,
                -0.004999999888241291,
                -0.09473766386508942
            ],
            "type" : "VEC3"
        },
        {
            "bufferView" : 5,
            "componentType" : 5126,
            "count" : 7211,
            "type" : "VEC3"
        },
        {
            "bufferView" : 6,
            "componentType" : 5126,
            "count" : 7211,
            "type" : "VEC2"
        },
        {
            "bufferView" : 7,
            "componentType" : 5123,
            "count" : 9540,
            "type" : "SCALAR"
        }
    ],
    "bufferViews" : [
        {
            "buffer" : 0,
            "byteLength" : 75132,
            "byteOffset" : 0
        },
        {
            "buffer" : 0,
            "byteLength" : 75132,
            "byteOffset" : 75132
        },
        {
            "buffer" : 0,
            "byteLength" : 50088,
            "byteOffset" : 150264
        },
        {
            "buffer" : 0,
            "byteLength" : 16272,
            "byteOffset" : 200352
        },
        {
            "buffer" : 0,
            "byteLength" : 86532,
            "byteOffset" : 216624
        },
        {
            "buffer" : 0,
            "byteLength" : 86532,
            "byteOffset" : 303156
        },
        {
            "buffer" : 0,
            "byteLength" : 57688,
            "byteOffset" : 389688
        },
        {
            "buffer" : 0,
            "byteLength" : 19080,
            "byteOffset" : 447376
        }
    ],
    "buffers" : [
        {
            "byteLength" : 466456,
            "uri" : "data:application/octet-stream;base64,"
        }
    ]
}
