{
    "asset" : {
        "generator" : "Khronos glTF Blender I/O v1.7.33",
        "version" : "2.0"
    },
    "scene" : 0,
    "scenes" : [
        {
            "name" : "Scene",
            "nodes" : [
                0
            ]
        }
    ],
    "nodes" : [
        {
            "mesh" : 0,
            "name" : "Curve.001",
            "translation" : [
                -0.05435260385274887,
                0,
                0.05657326057553291
            ]
        }
    ],
    "materials" : [
        {
            "doubleSided" : true,
            "name" : "SVGMat.002",
            "pbrMetallicRoughness" : {
                "baseColorFactor" : [
                    1,
                    1,
                    1,
                    1
                ],
                "metallicFactor" : 0,
                "roughnessFactor" : 0.4000000059604645
            }
        }
    ],
    "meshes" : [
        {
            "name" : "Curve.001",
            "primitives" : [
                {
                    "attributes" : {
                        "POSITION" : 0,
                        "NORMAL" : 1,
                        "TEXCOORD_0" : 2
                    },
                    "indices" : 3,
                    "material" : 0
                }
            ]
        }
    ],
    "accessors" : [
        {
            "bufferView" : 0,
            "componentType" : 5126,
            "count" : 3204,
            "max" : [
                0.10750798135995865,
                0,
                -0.0052281832322478294
            ],
            "min" : [
                0.005644559860229492,
                0,
                -0.1080704927444458
            ],
            "type" : "VEC3"
        },
        {
            "bufferView" : 1,
            "componentType" : 5126,
            "count" : 3204,
            "type" : "VEC3"
        },
        {
            "bufferView" : 2,
            "componentType" : 5126,
            "count" : 3204,
            "type" : "VEC2"
        },
        {
            "bufferView" : 3,
            "componentType" : 5123,
            "count" : 6999,
            "type" : "SCALAR"
        }
    ],
    "bufferViews" : [
        {
            "buffer" : 0,
            "byteLength" : 38448,
            "byteOffset" : 0
        },
        {
            "buffer" : 0,
            "byteLength" : 38448,
            "byteOffset" : 38448
        },
        {
            "buffer" : 0,
            "byteLength" : 25632,
            "byteOffset" : 76896
        },
        {
            "buffer" : 0,
            "byteLength" : 13998,
            "byteOffset" : 102528
        }
    ],
    "buffers" : [
        {
            "byteLength" : 116528,
            "uri" : "data:application/octet-stream;base64,"
        }
    ]
}
