{
    "asset" : {
        "generator" : "Khronos glTF Blender I/O v1.7.33",
        "version" : "2.0"
    },
    "scene" : 0,
    "scenes" : [
        {
            "name" : "Scene",
            "nodes" : [
                0
            ]
        }
    ],
    "nodes" : [
        {
            "mesh" : 0,
            "name" : "Curve.002",
            "scale" : [
                0.5,
                0.5,
                0.5
            ],
            "translation" : [
                -0.06091419607400894,
                0,
                0.05963628366589546
            ]
        }
    ],
    "materials" : [
        {
            "doubleSided" : true,
            "name" : "SVGMat.003",
            "pbrMetallicRoughness" : {
                "baseColorFactor" : [
                    1,
                    1,
                    1,
                    1
                ],
                "metallicFactor" : 0,
                "roughnessFactor" : 0.4000000059604645
            }
        },
        {
            "doubleSided" : true,
            "name" : "SVGMat.004",
            "pbrMetallicRoughness" : {
                "baseColorFactor" : [
                    0,
                    0,
                    0,
                    1
                ],
                "metallicFactor" : 0,
                "roughnessFactor" : 0.4000000059604645
            }
        }
    ],
    "meshes" : [
        {
            "name" : "Curve.002",
            "primitives" : [
                {
                    "attributes" : {
                        "POSITION" : 0,
                        "NORMAL" : 1,
                        "TEXCOORD_0" : 2
                    },
                    "indices" : 3,
                    "material" : 0
                },
                {
                    "attributes" : {
                        "POSITION" : 4,
                        "NORMAL" : 5,
                        "TEXCOORD_0" : 6
                    },
                    "indices" : 7,
                    "material" : 1
                }
            ]
        }
    ],
    "accessors" : [
        {
            "bufferView" : 0,
            "componentType" : 5126,
            "count" : 11547,
            "max" : [
                0.2196994423866272,
                0,
                -0.01739657297730446
            ],
            "min" : [
                0.02130926214158535,
                0,
                -0.22147870063781738
            ],
            "type" : "VEC3"
        },
        {
            "bufferView" : 1,
            "componentType" : 5126,
            "count" : 11547,
            "type" : "VEC3"
        },
        {
            "bufferView" : 2,
            "componentType" : 5126,
            "count" : 11547,
            "type" : "VEC2"
        },
        {
            "bufferView" : 3,
            "componentType" : 5123,
            "count" : 25557,
            "type" : "SCALAR"
        },
        {
            "bufferView" : 4,
            "componentType" : 5126,
            "count" : 11648,
            "max" : [
                0.226760596036911,
                0,
                -0.015695903450250626
            ],
            "min" : [
                0.015807149931788445,
                0,
                -0.22681337594985962
            ],
            "type" : "VEC3"
        },
        {
            "bufferView" : 5,
            "componentType" : 5126,
            "count" : 11648,
            "type" : "VEC3"
        },
        {
            "bufferView" : 6,
            "componentType" : 5126,
            "count" : 11648,
            "type" : "VEC2"
        },
        {
            "bufferView" : 7,
            "componentType" : 5123,
            "count" : 26541,
            "type" : "SCALAR"
        }
    ],
    "bufferViews" : [
        {
            "buffer" : 0,
            "byteLength" : 138564,
            "byteOffset" : 0
        },
        {
            "buffer" : 0,
            "byteLength" : 138564,
            "byteOffset" : 138564
        },
        {
            "buffer" : 0,
            "byteLength" : 92376,
            "byteOffset" : 277128
        },
        {
            "buffer" : 0,
            "byteLength" : 51114,
            "byteOffset" : 369504
        },
        {
            "buffer" : 0,
            "byteLength" : 139776,
            "byteOffset" : 420620
        },
        {
            "buffer" : 0,
            "byteLength" : 139776,
            "byteOffset" : 560396
        },
        {
            "buffer" : 0,
            "byteLength" : 93184,
            "byteOffset" : 700172
        },
        {
            "buffer" : 0,
            "byteLength" : 53082,
            "byteOffset" : 793356
        }
    ],
    "buffers" : [
        {
            "byteLength" : 846440,
            "uri" : "data:application/octet-stream;base64,"
        }
    ]
}
