{
    "asset" : {
        "generator" : "Khronos glTF Blender I/O v1.7.33",
        "version" : "2.0"
    },
    "scene" : 0,
    "scenes" : [
        {
            "name" : "Scene",
            "nodes" : [
                0
            ]
        }
    ],
    "nodes" : [
        {
            "mesh" : 0,
            "name" : "Curve",
            "scale" : [
                0.5,
                0.5,
                0.5
            ],
            "translation" : [
                -0.06091419607400894,
                0,
                0.05963628366589546
            ]
        }
    ],
    "materials" : [
        {
            "doubleSided" : true,
            "name" : "SVGMat.001",
            "pbrMetallicRoughness" : {
                "baseColorFactor" : [
                    0,
                    0,
                    0,
                    1
                ],
                "metallicFactor" : 0.5,
                "roughnessFactor" : 0.4000000059604645
            }
        },
        {
            "doubleSided" : true,
            "name" : "SVGMat.002",
            "pbrMetallicRoughness" : {
                "baseColorFactor" : [
                    1,
                    1,
                    1,
                    1
                ],
                "metallicFactor" : 0.5,
                "roughnessFactor" : 0.4000000059604645
            }
        }
    ],
    "meshes" : [
        {
            "name" : "Curve",
            "primitives" : [
                {
                    "attributes" : {
                        "POSITION" : 0,
                        "NORMAL" : 1,
                        "TEXCOORD_0" : 2
                    },
                    "indices" : 3,
                    "material" : 0
                },
                {
                    "attributes" : {
                        "POSITION" : 4,
                        "NORMAL" : 5,
                        "TEXCOORD_0" : 6
                    },
                    "indices" : 7,
                    "material" : 1
                }
            ]
        }
    ],
    "accessors" : [
        {
            "bufferView" : 0,
            "componentType" : 5126,
            "count" : 1762,
            "max" : [
                0.18197374045848846,
                0,
                -0.05276040732860565
            ],
            "min" : [
                0.06068043038249016,
                0,
                -0.18200290203094482
            ],
            "type" : "VEC3"
        },
        {
            "bufferView" : 1,
            "componentType" : 5126,
            "count" : 1762,
            "type" : "VEC3"
        },
        {
            "bufferView" : 2,
            "componentType" : 5126,
            "count" : 1762,
            "type" : "VEC2"
        },
        {
            "bufferView" : 3,
            "componentType" : 5123,
            "count" : 3927,
            "type" : "SCALAR"
        },
        {
            "bufferView" : 4,
            "componentType" : 5126,
            "count" : 2471,
            "max" : [
                0.23758478462696075,
                0,
                -0.005080163478851318
            ],
            "min" : [
                0.00510176457464695,
                0,
                -0.23747681081295013
            ],
            "type" : "VEC3"
        },
        {
            "bufferView" : 5,
            "componentType" : 5126,
            "count" : 2471,
            "type" : "VEC3"
        },
        {
            "bufferView" : 6,
            "componentType" : 5126,
            "count" : 2471,
            "type" : "VEC2"
        },
        {
            "bufferView" : 7,
            "componentType" : 5123,
            "count" : 5508,
            "type" : "SCALAR"
        }
    ],
    "bufferViews" : [
        {
            "buffer" : 0,
            "byteLength" : 21144,
            "byteOffset" : 0
        },
        {
            "buffer" : 0,
            "byteLength" : 21144,
            "byteOffset" : 21144
        },
        {
            "buffer" : 0,
            "byteLength" : 14096,
            "byteOffset" : 42288
        },
        {
            "buffer" : 0,
            "byteLength" : 7854,
            "byteOffset" : 56384
        },
        {
            "buffer" : 0,
            "byteLength" : 29652,
            "byteOffset" : 64240
        },
        {
            "buffer" : 0,
            "byteLength" : 29652,
            "byteOffset" : 93892
        },
        {
            "buffer" : 0,
            "byteLength" : 19768,
            "byteOffset" : 123544
        },
        {
            "buffer" : 0,
            "byteLength" : 11016,
            "byteOffset" : 143312
        }
    ],
    "buffers" : [
        {
            "byteLength" : 154328,
            "uri" : "data:application/octet-stream;base64,"
        }
    ]
}
